<svg width="14" height="14" viewBox="0 0 14 14" fill="none" xmlns="http://www.w3.org/2000/svg">
<path opacity="0.4" d="M6.9825 12.8333C10.2042 12.8333 12.8158 10.2217 12.8158 7C12.8158 3.77834 10.2042 1.16667 6.9825 1.16667C3.76084 1.16667 1.14917 3.77834 1.14917 7C1.14917 10.2217 3.76084 12.8333 6.9825 12.8333Z" fill="#4B45E6"/>
<path d="M8.73246 5.9675L7.04079 4.99334C6.62079 4.74834 6.11329 4.74834 5.69329 4.99334C5.27329 5.23834 5.02246 5.67 5.02246 6.16V8.11417C5.02246 8.59834 5.27329 9.03584 5.69329 9.28084C5.90329 9.40334 6.13663 9.46167 6.36413 9.46167C6.59746 9.46167 6.82496 9.40334 7.03496 9.28084L8.72663 8.30667C9.14663 8.06167 9.39746 7.63 9.39746 7.14C9.40913 6.65 9.15829 6.2125 8.73246 5.9675Z" fill="#4B45E6"/>
</svg>
