<svg width="32" height="32" viewBox="0 0 32 32" fill="none" xmlns="http://www.w3.org/2000/svg">
<path d="M23.8268 29.16C23.4134 29.16 23.0001 29.0533 22.6268 28.8266L17.2801 25.6533C16.7201 25.64 16.1601 25.6 15.6268 25.52C15.2668 25.4667 14.9601 25.2266 14.8268 24.8799C14.6934 24.5333 14.7601 24.1599 15.0001 23.8799C15.8801 22.8533 16.3334 21.6266 16.3334 20.32C16.3334 17.0933 13.4934 14.4666 10.0001 14.4666C8.69343 14.4666 7.44009 14.8267 6.38676 15.52C6.09343 15.7067 5.73343 15.7333 5.41343 15.5866C5.10677 15.44 4.88011 15.1466 4.84011 14.7999C4.80011 14.4266 4.77344 14.0533 4.77344 13.6666C4.77344 7.05331 10.5068 1.67999 17.5468 1.67999C24.5868 1.67999 30.3201 7.05331 30.3201 13.6666C30.3201 17.2933 28.6401 20.6266 25.6801 22.9066L26.1334 26.5333C26.2401 27.44 25.8401 28.2934 25.0801 28.7867C24.7068 29.0267 24.2668 29.16 23.8268 29.16ZM17.5334 23.64C17.7201 23.6266 17.9068 23.68 18.0668 23.7867L23.6534 27.1067C23.8001 27.2 23.9201 27.16 24.0001 27.1067C24.0668 27.0667 24.1734 26.96 24.1468 26.7733L23.6268 22.56C23.5868 22.1866 23.7468 21.8267 24.0401 21.6133C26.7601 19.7067 28.3201 16.8 28.3201 13.64C28.3201 8.13329 23.4934 3.6533 17.5468 3.6533C11.8268 3.6533 7.13343 7.81335 6.78676 13.04C7.78676 12.6534 8.86678 12.44 9.98678 12.44C14.5868 12.44 18.3201 15.9599 18.3201 20.2933C18.3334 21.4666 18.0534 22.6 17.5334 23.64Z" fill="#A3A9B6"/>
<path d="M6.10636 30.3334C5.7597 30.3334 5.42636 30.2401 5.11969 30.0401C4.51969 29.6534 4.1997 28.9868 4.2797 28.2801L4.54637 26.2267C2.74637 24.76 1.67969 22.5867 1.67969 20.3067C1.67969 17.7067 3.0397 15.2801 5.3197 13.8267C6.69304 12.9334 8.31969 12.4534 10.013 12.4534C14.613 12.4534 18.3464 15.9734 18.3464 20.3067C18.3464 22.0667 17.7064 23.8001 16.533 25.1734C15.0264 27.0001 12.773 28.0667 10.293 28.1467L7.03969 30.0801C6.74636 30.2534 6.42636 30.3334 6.10636 30.3334ZM9.99969 14.4534C8.69303 14.4534 7.43969 14.8134 6.38635 15.5067C4.67969 16.6001 3.66636 18.3867 3.66636 20.3067C3.66636 22.16 4.57303 23.8534 6.17303 24.9468C6.4797 25.1601 6.63969 25.52 6.59969 25.8934L6.30636 28.1734L9.49302 26.2801C9.65302 26.1868 9.82636 26.1334 9.99969 26.1334C11.9597 26.1334 13.813 25.2934 14.9864 23.8668C15.8664 22.8268 16.333 21.6 16.333 20.2934C16.333 17.08 13.493 14.4534 9.99969 14.4534Z" fill="#A3A9B6"/>
</svg>
