<svg width="16" height="16" viewBox="0 0 16 16" fill="none" xmlns="http://www.w3.org/2000/svg">
<path d="M12.6667 15.1667C12.3933 15.1667 12.1667 14.94 12.1667 14.6667V7.33337C12.1667 7.06004 12.3933 6.83337 12.6667 6.83337C12.94 6.83337 13.1667 7.06004 13.1667 7.33337V14.6667C13.1667 14.94 12.94 15.1667 12.6667 15.1667Z" fill="#A3A9B6"/>
<path d="M12.6667 5.16671C12.3933 5.16671 12.1667 4.94004 12.1667 4.66671V1.33337C12.1667 1.06004 12.3933 0.833374 12.6667 0.833374C12.94 0.833374 13.1667 1.06004 13.1667 1.33337V4.66671C13.1667 4.94004 12.94 5.16671 12.6667 5.16671Z" fill="#A3A9B6"/>
<path d="M8 15.1667C7.72667 15.1667 7.5 14.94 7.5 14.6667V11.3334C7.5 11.06 7.72667 10.8334 8 10.8334C8.27333 10.8334 8.5 11.06 8.5 11.3334V14.6667C8.5 14.94 8.27333 15.1667 8 15.1667Z" fill="#A3A9B6"/>
<path d="M8 9.16671C7.72667 9.16671 7.5 8.94004 7.5 8.66671V1.33337C7.5 1.06004 7.72667 0.833374 8 0.833374C8.27333 0.833374 8.5 1.06004 8.5 1.33337V8.66671C8.5 8.94004 8.27333 9.16671 8 9.16671Z" fill="#A3A9B6"/>
<path d="M3.33333 15.1667C3.05999 15.1667 2.83333 14.94 2.83333 14.6667V7.33337C2.83333 7.06004 3.05999 6.83337 3.33333 6.83337C3.60666 6.83337 3.83333 7.06004 3.83333 7.33337V14.6667C3.83333 14.94 3.60666 15.1667 3.33333 15.1667Z" fill="#A3A9B6"/>
<path d="M3.33333 5.16671C3.05999 5.16671 2.83333 4.94004 2.83333 4.66671V1.33337C2.83333 1.06004 3.05999 0.833374 3.33333 0.833374C3.60666 0.833374 3.83333 1.06004 3.83333 1.33337V4.66671C3.83333 4.94004 3.60666 5.16671 3.33333 5.16671Z" fill="#A3A9B6"/>
<path d="M4.66667 7.83337H2C1.72667 7.83337 1.5 7.60671 1.5 7.33337C1.5 7.06004 1.72667 6.83337 2 6.83337H4.66667C4.94 6.83337 5.16667 7.06004 5.16667 7.33337C5.16667 7.60671 4.94 7.83337 4.66667 7.83337Z" fill="#A3A9B6"/>
<path d="M14 7.83337H11.3333C11.06 7.83337 10.8333 7.60671 10.8333 7.33337C10.8333 7.06004 11.06 6.83337 11.3333 6.83337H14C14.2733 6.83337 14.5 7.06004 14.5 7.33337C14.5 7.60671 14.2733 7.83337 14 7.83337Z" fill="#A3A9B6"/>
<path d="M9.33334 9.16663H6.66667C6.39334 9.16663 6.16667 8.93996 6.16667 8.66663C6.16667 8.39329 6.39334 8.16663 6.66667 8.16663H9.33334C9.60667 8.16663 9.83334 8.39329 9.83334 8.66663C9.83334 8.93996 9.60667 9.16663 9.33334 9.16663Z" fill="#A3A9B6"/>
</svg>
