<svg width="32" height="32" viewBox="0 0 32 32" fill="none" xmlns="http://www.w3.org/2000/svg">
<path d="M1.6665 6.66667C1.6665 3.90524 3.90508 1.66667 6.6665 1.66667H9.33317C9.88546 1.66667 10.3332 2.11438 10.3332 2.66667C10.3332 3.21895 9.88546 3.66667 9.33317 3.66667H6.6665C5.00965 3.66667 3.6665 5.00981 3.6665 6.66667V9.33333C3.6665 9.88562 3.21879 10.3333 2.6665 10.3333C2.11422 10.3333 1.6665 9.88562 1.6665 9.33333V6.66667Z" fill="#16161D"/>
<path d="M21.6665 2.66667C21.6665 2.11438 22.1142 1.66667 22.6665 1.66667H25.3332C28.0946 1.66667 30.3332 3.90524 30.3332 6.66667V9.33333C30.3332 9.88562 29.8855 10.3333 29.3332 10.3333C28.7809 10.3333 28.3332 9.88562 28.3332 9.33333V6.66667C28.3332 5.00981 26.99 3.66667 25.3332 3.66667H22.6665C22.1142 3.66667 21.6665 3.21895 21.6665 2.66667Z" fill="#16161D"/>
<path d="M2.6665 21.6667C3.21879 21.6667 3.6665 22.1144 3.6665 22.6667V25.3333C3.6665 26.9902 5.00965 28.3333 6.6665 28.3333H9.33317C9.88546 28.3333 10.3332 28.781 10.3332 29.3333C10.3332 29.8856 9.88546 30.3333 9.33317 30.3333H6.6665C3.90508 30.3333 1.6665 28.0948 1.6665 25.3333V22.6667C1.6665 22.1144 2.11422 21.6667 2.6665 21.6667Z" fill="#16161D"/>
<path d="M29.3332 21.6667C29.8855 21.6667 30.3332 22.1144 30.3332 22.6667V25.3333C30.3332 28.0948 28.0946 30.3333 25.3332 30.3333H22.6665C22.1142 30.3333 21.6665 29.8856 21.6665 29.3333C21.6665 28.781 22.1142 28.3333 22.6665 28.3333H25.3332C26.99 28.3333 28.3332 26.9902 28.3332 25.3333V22.6667C28.3332 22.1144 28.7809 21.6667 29.3332 21.6667Z" fill="#16161D"/>
<path fill-rule="evenodd" clip-rule="evenodd" d="M5.6665 8.66667C5.6665 7.00981 7.00965 5.66667 8.6665 5.66667H11.3332C12.99 5.66667 14.3332 7.00981 14.3332 8.66667V11.3333C14.3332 12.9902 12.99 14.3333 11.3332 14.3333H8.6665C7.00965 14.3333 5.6665 12.9902 5.6665 11.3333V8.66667ZM8.6665 7.66667C8.11422 7.66667 7.6665 8.11438 7.6665 8.66667V11.3333C7.6665 11.8856 8.11422 12.3333 8.6665 12.3333H11.3332C11.8855 12.3333 12.3332 11.8856 12.3332 11.3333V8.66667C12.3332 8.11438 11.8855 7.66667 11.3332 7.66667H8.6665Z" fill="#16161D"/>
<path fill-rule="evenodd" clip-rule="evenodd" d="M20.6665 5.66667C19.0096 5.66667 17.6665 7.00981 17.6665 8.66667V11.3333C17.6665 12.9902 19.0096 14.3333 20.6665 14.3333H23.3332C24.99 14.3333 26.3332 12.9902 26.3332 11.3333V8.66667C26.3332 7.00981 24.99 5.66667 23.3332 5.66667H20.6665ZM19.6665 8.66667C19.6665 8.11438 20.1142 7.66667 20.6665 7.66667H23.3332C23.8855 7.66667 24.3332 8.11438 24.3332 8.66667V11.3333C24.3332 11.8856 23.8855 12.3333 23.3332 12.3333H20.6665C20.1142 12.3333 19.6665 11.8856 19.6665 11.3333V8.66667Z" fill="#16161D"/>
<path fill-rule="evenodd" clip-rule="evenodd" d="M5.6665 20.6667C5.6665 19.0098 7.00965 17.6667 8.6665 17.6667H11.3332C12.99 17.6667 14.3332 19.0098 14.3332 20.6667V23.3333C14.3332 24.9902 12.99 26.3333 11.3332 26.3333H8.6665C7.00965 26.3333 5.6665 24.9902 5.6665 23.3333V20.6667ZM8.6665 19.6667C8.11422 19.6667 7.6665 20.1144 7.6665 20.6667V23.3333C7.6665 23.8856 8.11422 24.3333 8.6665 24.3333H11.3332C11.8855 24.3333 12.3332 23.8856 12.3332 23.3333V20.6667C12.3332 20.1144 11.8855 19.6667 11.3332 19.6667H8.6665Z" fill="#16161D"/>
<path d="M19.6769 21.9999C19.6769 21.4476 19.2291 20.9999 18.6768 21C18.1245 21.0001 17.6769 21.4478 17.6769 22.0001L17.6772 25.3334C17.6773 25.8857 18.125 26.3334 18.6773 26.3333C19.2296 26.3333 19.6773 25.8855 19.6772 25.3332L19.6769 21.9999Z" fill="#16161D"/>
<path d="M20.9998 25.3333C20.9998 24.781 21.4476 24.3333 21.9998 24.3333H22.0132C22.5655 24.3333 23.0132 24.781 23.0132 25.3333C23.0132 25.8856 22.5655 26.3333 22.0132 26.3333H21.9998C21.4476 26.3333 20.9998 25.8856 20.9998 25.3333Z" fill="#16161D"/>
<path d="M25.3332 17.6667C24.7809 17.6667 24.3332 18.1144 24.3332 18.6667C24.3332 19.219 24.7809 19.6667 25.3332 19.6667H25.3465C25.8988 19.6667 26.3465 19.219 26.3465 18.6667C26.3465 18.1144 25.8988 17.6667 25.3465 17.6667H25.3332Z" fill="#16161D"/>
<path d="M20.9998 22C20.9998 21.4477 21.4476 21 21.9998 21H25.3332C25.8855 21 26.3332 21.4477 26.3332 22V25.3333C26.3332 25.8856 25.8855 26.3333 25.3332 26.3333C24.7809 26.3333 24.3332 25.8856 24.3332 25.3333V23H21.9998C21.4476 23 20.9998 22.5523 20.9998 22Z" fill="#16161D"/>
<path d="M18.6665 17.6667C18.1142 17.6667 17.6665 18.1144 17.6665 18.6667C17.6665 19.219 18.1142 19.6667 18.6665 19.6667H21.9998C22.5521 19.6667 22.9998 19.219 22.9998 18.6667C22.9998 18.1144 22.5521 17.6667 21.9998 17.6667H18.6665Z" fill="#16161D"/>
</svg>
