<svg width="32" height="32" viewBox="0 0 32 32" fill="none" xmlns="http://www.w3.org/2000/svg">
<path d="M16.667 19.6667H13.3337C12.787 19.6667 12.3337 19.2133 12.3337 18.6667C12.3337 18.12 12.787 17.6667 13.3337 17.6667H16.667C20.1604 17.6667 23.0004 14.8267 23.0004 11.3333C23.0004 7.84 20.1604 5 16.667 5H10.0004C6.50702 5 3.66702 7.84 3.66702 11.3333C3.66702 12.8 4.18702 14.2267 5.12035 15.36C5.46702 15.7867 5.41369 16.4133 4.98702 16.7733C4.56035 17.12 3.93369 17.0667 3.57369 16.64C2.33369 15.1467 1.65369 13.2667 1.65369 11.3333C1.65369 6.73333 5.38702 3 9.98702 3H16.6537C21.2537 3 24.987 6.73333 24.987 11.3333C24.987 15.9333 21.267 19.6667 16.667 19.6667Z" fill="#A3A9B6"/>
<path d="M22 29H15.3333C10.7333 29 7 25.2667 7 20.6667C7 16.0667 10.7333 12.3334 15.3333 12.3334H18.6667C19.2133 12.3334 19.6667 12.7867 19.6667 13.3334C19.6667 13.88 19.2133 14.3334 18.6667 14.3334H15.3333C11.84 14.3334 9 17.1734 9 20.6667C9 24.16 11.84 27 15.3333 27H22C25.4933 27 28.3333 24.16 28.3333 20.6667C28.3333 19.2 27.8133 17.7734 26.88 16.6401C26.5333 16.2134 26.5867 15.5867 27.0133 15.2267C27.44 14.8667 28.0667 14.9334 28.4267 15.36C29.6667 16.8534 30.3467 18.7334 30.3467 20.6667C30.3333 25.2667 26.6 29 22 29Z" fill="#A3A9B6"/>
</svg>
