<svg width="16" height="16" viewBox="0 0 16 16" fill="none" xmlns="http://www.w3.org/2000/svg">
<path opacity="0.4" d="M7.16667 1.63338C7.62667 1.24005 8.38 1.24005 8.84667 1.63338L9.9 2.54005C10.1 2.71338 10.4733 2.85338 10.74 2.85338H11.8733C12.58 2.85338 13.16 3.43338 13.16 4.14005V5.27338C13.16 5.53338 13.3 5.91338 13.4733 6.11338L14.38 7.16671C14.7733 7.62671 14.7733 8.38005 14.38 8.84671L13.4733 9.90005C13.3 10.1 13.16 10.4734 13.16 10.74V11.8734C13.16 12.58 12.58 13.16 11.8733 13.16H10.74C10.48 13.16 10.1 13.3 9.9 13.4734L8.84667 14.38C8.38667 14.7734 7.63334 14.7734 7.16667 14.38L6.11334 13.4734C5.91334 13.3 5.54 13.16 5.27334 13.16H4.12C3.41334 13.16 2.83334 12.58 2.83334 11.8734V10.7334C2.83334 10.4734 2.69334 10.1 2.52667 9.90005L1.62667 8.84005C1.24 8.38005 1.24 7.63338 1.62667 7.17338L2.52667 6.11338C2.69334 5.91338 2.83334 5.54005 2.83334 5.28005V4.13338C2.83334 3.42671 3.41334 2.84671 4.12 2.84671H5.27334C5.53334 2.84671 5.91334 2.70671 6.11334 2.53338L7.16667 1.63338Z" fill="#FAFAFA"/>
<path d="M7.19333 10.1134C7.06 10.1134 6.93333 10.06 6.84 9.96669L5.22667 8.35335C5.03333 8.16002 5.03333 7.84002 5.22667 7.64669C5.42 7.45335 5.74 7.45335 5.93333 7.64669L7.19333 8.90669L10.06 6.04002C10.2533 5.84669 10.5733 5.84669 10.7667 6.04002C10.96 6.23335 10.96 6.55335 10.7667 6.74669L7.54666 9.96669C7.45333 10.06 7.32666 10.1134 7.19333 10.1134Z" fill="#FAFAFA"/>
</svg>
