<svg width="32" height="32" viewBox="0 0 32 32" fill="none" xmlns="http://www.w3.org/2000/svg">
<path d="M8.71877 14.023C8.24048 13.7469 7.62889 13.9107 7.35275 14.389C7.0766 14.8673 7.24048 15.4789 7.71877 15.755L7.72839 15.7606C8.20669 16.0367 8.81828 15.8729 9.09442 15.3946C9.37056 14.9163 9.20669 14.3047 8.72839 14.0286L8.71877 14.023Z" fill="#A3A9B6"/>
<path fill-rule="evenodd" clip-rule="evenodd" d="M14.9053 1.83424C12.2972 1.13541 9.61645 2.68315 8.91763 5.29121L8.10249 8.33336H6.55558C3.85552 8.33336 1.66669 10.5222 1.66669 13.2222V25.4445C1.66669 28.1445 3.85552 30.3334 6.55558 30.3334H18.7778C21.2093 30.3334 23.2263 28.5582 23.6034 26.2332C25.2077 25.7814 26.5414 24.52 27.0047 22.791L30.168 10.9852C30.8668 8.37717 29.3191 5.69641 26.711 4.99759L14.9053 1.83424ZM23.6667 24.0615C24.3362 23.6957 24.8601 23.0671 25.0728 22.2733L28.2361 10.4676C28.6491 8.92647 27.7345 7.34238 26.1934 6.92944L14.3876 3.76609C12.8465 3.35315 11.2624 4.26772 10.8495 5.80885L10.173 8.33336H18.7778C21.4779 8.33336 23.6667 10.5222 23.6667 13.2222V24.0615ZM3.66669 13.2222C3.66669 11.6268 4.96009 10.3334 6.55558 10.3334H18.7778C20.3733 10.3334 21.6667 11.6268 21.6667 13.2222V17.1802C20.7912 16.623 19.8519 16.2512 18.8758 16.1536C15.669 15.8332 13.3881 17.3599 11.4112 19.1823C10.7915 19.7536 10.1629 20.3922 9.5428 21.0222C9.19813 21.3723 8.85609 21.7198 8.51967 22.0515C7.54862 23.0091 6.55522 23.9093 5.444 24.6499C4.92346 24.9969 4.3047 25.3335 3.67127 25.6087C3.66823 25.5543 3.66669 25.4996 3.66669 25.4445V13.2222ZM18.677 18.1437C19.6085 18.2368 20.6377 18.7581 21.6667 19.6992V25.4445C21.6667 27.04 20.3733 28.3334 18.7778 28.3334H6.55558C5.73537 28.3334 4.99501 27.9915 4.46915 27.4426C5.2163 27.118 5.93874 26.7237 6.55323 26.3141C7.82179 25.4686 8.92105 24.4646 9.92399 23.4756C10.3091 23.0958 10.6715 22.7273 11.0234 22.3695C11.6149 21.7681 12.1769 21.1966 12.7668 20.6528C14.6 18.9629 16.3282 17.909 18.677 18.1437Z" fill="#A3A9B6"/>
</svg>
