<svg width="24" height="24" viewBox="0 0 24 24" fill="none" xmlns="http://www.w3.org/2000/svg">
<path fill-rule="evenodd" clip-rule="evenodd" d="M1.32934 2.16475C1.51459 1.79427 1.96509 1.6441 2.33557 1.82934L3.37019 2.34665C4.19866 2.76088 4.76293 3.56435 4.87142 4.48422L4.99254 5.51117L18.9698 5.09096C21.0029 5.02984 22.5919 6.83016 22.2787 8.83993L21.6085 13.1401C21.3402 14.8619 19.9211 16.172 18.1834 16.3022L8.92222 16.9959C7.94844 17.0689 7.02455 16.8072 6.26574 16.3064L6.28975 16.5099C6.42205 17.644 7.38292 18.5002 8.5247 18.5002H18.7871C19.2013 18.5002 19.5371 18.836 19.5371 19.2502C19.5371 19.6644 19.2013 20.0002 18.7871 20.0002H8.5247C6.62187 20.0002 5.02069 18.575 4.80001 16.6851L4.43219 13.5664C4.41086 13.4558 4.39374 13.3434 4.38102 13.2295L4.17658 11.3991L3.38175 4.65992C3.33243 4.24179 3.07594 3.87658 2.69937 3.68829L1.66475 3.17098C1.29427 2.98574 1.1441 2.53524 1.32934 2.16475ZM5.91463 13.3294C6.19618 14.6615 7.42517 15.6039 8.81018 15.5001L18.0713 14.8064C19.114 14.7283 19.9654 13.9422 20.1264 12.9091L20.7966 8.60896C20.9652 7.52678 20.1096 6.55737 19.0149 6.59028L5.1952 7.00575L5.66679 11.228L5.91463 13.3294Z" fill="#FAFAFA"/>
<path d="M14.7493 22.0026C14.7493 21.5884 15.0851 21.2526 15.4993 21.2526H15.5093C15.9235 21.2526 16.2593 21.5884 16.2593 22.0026C16.2593 22.4168 15.9235 22.7526 15.5093 22.7526H15.4993C15.0851 22.7526 14.7493 22.4168 14.7493 22.0026Z" fill="#FAFAFA"/>
<path d="M9.55552 22.7509C9.96899 22.726 10.2841 22.3707 10.2592 21.9573C10.2344 21.5438 9.87911 21.2287 9.46564 21.2535L9.45448 21.2542C9.04101 21.279 8.72595 21.6343 8.75077 22.0478C8.77559 22.4613 9.13089 22.7763 9.54436 22.7515L9.55552 22.7509Z" fill="#FAFAFA"/>
</svg>
