<svg width="16" height="16" viewBox="0 0 16 16" fill="none" xmlns="http://www.w3.org/2000/svg">
<path fill-rule="evenodd" clip-rule="evenodd" d="M5.16665 2.44814L2.12378 3.85254C1.94671 3.93427 1.83331 4.11149 1.83331 4.30652V12.9187C1.83331 13.2639 2.17472 13.5052 2.5001 13.3901L5.16665 12.4466V2.44814ZM6.16665 12.438L8.15606 13.0917C8.4184 13.1779 8.56119 13.4604 8.47499 13.7228C8.3888 13.9851 8.10625 14.1279 7.8439 14.0417L5.83468 13.3815C5.72962 13.347 5.61607 13.3483 5.51182 13.3852L2.83368 14.3328C1.85755 14.6782 0.833313 13.9542 0.833313 12.9187V4.30652C0.833313 3.72144 1.1735 3.18976 1.70473 2.94458L5.05312 1.39917C5.43888 1.22112 5.88206 1.21503 6.27258 1.38239L10.1213 3.03184C10.2515 3.08763 10.3992 3.08559 10.5278 3.02625L13.0381 1.86766C14.032 1.40892 15.1666 2.13491 15.1666 3.2296V6.66671C15.1666 6.94285 14.9428 7.16671 14.6666 7.16671C14.3905 7.16671 14.1666 6.94285 14.1666 6.66671V3.2296C14.1666 2.8647 13.7884 2.6227 13.4571 2.77562L10.9468 3.93421C10.9095 3.95144 10.8716 3.96706 10.8333 3.98107V5.83337C10.8333 6.10952 10.6095 6.33337 10.3333 6.33337C10.0572 6.33337 9.83331 6.10952 9.83331 5.83337V3.99172C9.79763 3.97953 9.76229 3.96595 9.72738 3.95098L6.16665 2.42496V12.438ZM11.6568 9.53568C11.3688 9.53568 11.1354 9.76914 11.1354 10.0571C11.1354 10.3451 11.3688 10.5785 11.6568 10.5785C11.9448 10.5785 12.1783 10.3451 12.1783 10.0571C12.1783 9.76914 11.9448 9.53568 11.6568 9.53568ZM10.1354 10.0571C10.1354 9.21685 10.8166 8.53568 11.6568 8.53568C12.4971 8.53568 13.1783 9.21685 13.1783 10.0571C13.1783 10.8974 12.4971 11.5785 11.6568 11.5785C10.8166 11.5785 10.1354 10.8974 10.1354 10.0571ZM9.43357 10.0572C9.43357 8.82557 10.3289 7.83337 11.6574 7.83337C12.9859 7.83337 13.8812 8.82557 13.8812 10.0572C13.8812 11.1314 13.5634 12.1956 13.0971 12.9803C12.6102 13.7996 12.0595 14.1667 11.6574 14.1667C11.2552 14.1667 10.7046 13.7996 10.2177 12.9803C9.75132 12.1956 9.43357 11.1314 9.43357 10.0572ZM11.6574 6.83337C9.74584 6.83337 8.43357 8.30452 8.43357 10.0572C8.43357 11.3132 8.80087 12.5537 9.35801 13.4912C9.8946 14.3941 10.7058 15.1667 11.6574 15.1667C12.6089 15.1667 13.4202 14.3941 13.9568 13.4912C14.5139 12.5537 14.8812 11.3132 14.8812 10.0572C14.8812 8.30452 13.5689 6.83337 11.6574 6.83337Z" fill="#A2A2A5"/>
</svg>
