<svg width="16" height="16" viewBox="0 0 16 16" fill="none" xmlns="http://www.w3.org/2000/svg">
<path d="M7 11.1667C6.72386 11.1667 6.5 11.3906 6.5 11.6667C6.5 11.9428 6.72386 12.1667 7 12.1667H9C9.27614 12.1667 9.5 11.9428 9.5 11.6667C9.5 11.3906 9.27614 11.1667 9 11.1667H7Z" fill="#A2A2A5"/>
<path fill-rule="evenodd" clip-rule="evenodd" d="M6.33333 1.83337C4.76853 1.83337 3.5 3.1019 3.5 4.66671V11.3334C3.5 12.8982 4.76853 14.1667 6.33333 14.1667H9.66667C11.2315 14.1667 12.5 12.8982 12.5 11.3334V4.66671C12.5 3.1019 11.2315 1.83337 9.66667 1.83337H6.33333ZM4.5 4.66671C4.5 3.65419 5.32081 2.83337 6.33333 2.83337H9.66667C10.6792 2.83337 11.5 3.65419 11.5 4.66671V11.3334C11.5 12.3459 10.6792 13.1667 9.66667 13.1667H6.33333C5.32081 13.1667 4.5 12.3459 4.5 11.3334V4.66671Z" fill="#A2A2A5"/>
</svg>
