<svg width="20" height="14" viewBox="0 0 20 14" fill="none" xmlns="http://www.w3.org/2000/svg">
<path d="M10.9744 3.29231C10.9744 2.68621 11.4657 2.19487 12.0718 2.19487H13.1692C13.7753 2.19487 14.2667 2.68621 14.2667 3.29231V12.0718C14.2667 12.6779 13.7753 13.1692 13.1692 13.1692H12.0718C11.4657 13.1692 10.9744 12.6779 10.9744 12.0718V3.29231Z" fill="#FAFAFA"/>
<path d="M16.4615 1.09744C16.4615 0.491339 16.9529 0 17.559 0H18.6564C19.2625 0 19.7538 0.491339 19.7538 1.09744V12.0718C19.7538 12.6779 19.2625 13.1692 18.6564 13.1692H17.559C16.9529 13.1692 16.4615 12.6779 16.4615 12.0718V1.09744Z" fill="#FAFAFA"/>
<path d="M5.48718 7.13333C5.48718 6.52724 5.97852 6.0359 6.58461 6.0359H7.68205C8.28815 6.0359 8.77949 6.52724 8.77949 7.13333V12.0718C8.77949 12.6779 8.28815 13.1692 7.68205 13.1692H6.58461C5.97852 13.1692 5.48718 12.6779 5.48718 12.0718V7.13333Z" fill="#FAFAFA"/>
<path d="M0 9.87692C0 9.27083 0.491339 8.77949 1.09744 8.77949H2.19487C2.80097 8.77949 3.29231 9.27083 3.29231 9.87692V12.0718C3.29231 12.6779 2.80097 13.1692 2.19487 13.1692H1.09744C0.491339 13.1692 0 12.6779 0 12.0718V9.87692Z" fill="#FAFAFA"/>
</svg>
