<svg width="32" height="32" viewBox="0 0 32 32" fill="none" xmlns="http://www.w3.org/2000/svg">
<path d="M8.71871 14.0229C8.24042 13.7468 7.62883 13.9107 7.35268 14.389C7.07654 14.8673 7.24042 15.4788 7.71871 15.755L7.72833 15.7605C8.20662 16.0367 8.81822 15.8728 9.09436 15.3945C9.3705 14.9162 9.20662 14.3046 8.72833 14.0285L8.71871 14.0229Z" fill="#A3A9B6"/>
<path fill-rule="evenodd" clip-rule="evenodd" d="M14.9052 1.83418C12.2972 1.13535 9.61639 2.68309 8.91757 5.29115L8.10242 8.3333H6.55551C3.85546 8.3333 1.66663 10.5221 1.66663 13.2222V25.4444C1.66663 28.1445 3.85546 30.3333 6.55551 30.3333H18.7777C21.2093 30.3333 23.2262 28.5582 23.6033 26.2332C25.2077 25.7814 26.5413 24.52 27.0046 22.7909L30.1679 10.9852C30.8668 8.37711 29.319 5.69635 26.711 4.99752L14.9052 1.83418ZM23.6666 24.0614C24.3362 23.6956 24.86 23.0671 25.0727 22.2733L28.2361 10.4675C28.649 8.9264 27.7345 7.34232 26.1933 6.92938L14.3876 3.76603C12.8464 3.35309 11.2624 4.26766 10.8494 5.80878L10.173 8.3333H18.7777C21.4778 8.3333 23.6666 10.5221 23.6666 13.2222V24.0614ZM3.66663 13.2222C3.66663 11.6267 4.96003 10.3333 6.55551 10.3333H18.7777C20.3732 10.3333 21.6666 11.6267 21.6666 13.2222V17.1802C20.7911 16.6229 19.8518 16.2511 18.8758 16.1536C15.6689 15.8331 13.3881 17.3598 11.4111 19.1822C10.7915 19.7535 10.1628 20.3921 9.54274 21.0221C9.19807 21.3722 8.85603 21.7197 8.51961 22.0515C7.54856 23.0091 6.55515 23.9092 5.44394 24.6499C4.9234 24.9968 4.30464 25.3334 3.67121 25.6086C3.66817 25.5543 3.66663 25.4995 3.66663 25.4444V13.2222ZM18.6769 18.1437C19.6084 18.2367 20.6376 18.7581 21.6666 19.6991V25.4444C21.6666 27.0399 20.3732 28.3333 18.7777 28.3333H6.55551C5.73531 28.3333 4.99495 27.9915 4.46909 27.4425C5.21624 27.1179 5.93867 26.7237 6.55317 26.3141C7.82173 25.4686 8.92099 24.4646 9.92393 23.4755C10.309 23.0958 10.6714 22.7273 11.0233 22.3694C11.6148 21.768 12.1769 21.1965 12.7667 20.6528C14.5999 18.9628 16.3282 17.909 18.6769 18.1437Z" fill="#A3A9B6"/>
</svg>
