<svg width="32" height="32" viewBox="0 0 32 32" fill="none" xmlns="http://www.w3.org/2000/svg">
<path d="M7.60028 12.7429C7.60028 8.10929 10.9963 4.33337 16.0098 4.33337C21.0233 4.33337 24.4193 8.10929 24.4193 12.7429C24.4193 13.7853 24.3359 14.827 24.1799 15.8492C24.0966 16.3951 24.4716 16.9053 25.0176 16.9886C25.5636 17.0719 26.0737 16.6969 26.157 16.1509C26.3275 15.0341 26.4193 13.8914 26.4193 12.7429C26.4193 7.06719 22.1893 2.33337 16.0098 2.33337C9.83031 2.33337 5.60028 7.06719 5.60028 12.7429C5.60028 16.9497 6.8331 21.1069 8.69172 24.2344C10.5092 27.2927 13.1222 29.6667 16.0098 29.6667C17.2423 29.6667 18.4242 29.2274 19.4951 28.5142C19.9547 28.2081 20.0792 27.5873 19.773 27.1276C19.4669 26.6679 18.8461 26.5435 18.3864 26.8496C17.5587 27.4009 16.7565 27.6667 16.0098 27.6667C14.221 27.6667 12.1292 26.1037 10.411 23.2126C8.734 20.3907 7.60028 16.586 7.60028 12.7429Z" fill="#A3A9B6"/>
<path fill-rule="evenodd" clip-rule="evenodd" d="M9.94403 12.7428C9.94403 9.39229 12.6602 6.67615 16.0107 6.67615C19.3612 6.67615 22.0774 9.39229 22.0774 12.7428C22.0774 16.0933 19.3612 18.8095 16.0107 18.8095C12.6602 18.8095 9.94403 16.0933 9.94403 12.7428ZM16.0107 8.67615C13.7647 8.67615 11.944 10.4969 11.944 12.7428C11.944 14.9888 13.7647 16.8095 16.0107 16.8095C18.2567 16.8095 20.0774 14.9888 20.0774 12.7428C20.0774 10.4969 18.2567 8.67615 16.0107 8.67615Z" fill="#A3A9B6"/>
<path fill-rule="evenodd" clip-rule="evenodd" d="M28.179 19.2115C27.2836 18.4164 26.3186 18.2197 25.4544 18.3901C24.9555 18.4886 24.5271 18.7011 24.1876 18.9312C23.848 18.7011 23.4196 18.4886 22.9207 18.3901C22.0566 18.2197 21.0915 18.4164 20.1962 19.2115C19.4635 19.842 18.9066 21.0178 19.0131 22.3396C19.0832 23.2997 19.5773 24.2069 20.2587 25.009C20.9499 25.8226 21.8978 26.6049 23.0205 27.3247C23.7317 27.7807 24.6435 27.7808 25.3547 27.3246C26.4773 26.6046 27.4243 25.8222 28.1145 25.0084C28.7951 24.2059 29.2876 23.2989 29.3576 22.3396C29.4639 21.0214 28.9143 19.8442 28.179 19.2115ZM25.8415 20.3523C25.54 20.4118 25.2492 20.6051 25.0534 20.7939C24.5717 21.2583 23.8034 21.2583 23.3218 20.794C23.1259 20.6051 22.8351 20.4118 22.5336 20.3523C22.2925 20.3047 21.958 20.3198 21.5198 20.7108L21.5029 20.7256C21.2675 20.9263 20.949 21.4752 21.0069 22.1816L21.0077 22.1921C21.0345 22.5676 21.2478 23.0842 21.7829 23.7141C22.3095 24.334 23.0888 24.9928 24.1 25.641C24.1534 25.6753 24.2218 25.6752 24.275 25.6411C25.2856 24.9929 26.0638 24.3343 26.5892 23.7147C27.1231 23.0852 27.3363 22.5683 27.3631 22.192L27.3638 22.1815C27.422 21.4716 27.1049 20.924 26.8723 20.7256L26.8553 20.7108C26.4172 20.3198 26.0827 20.3047 25.8415 20.3523Z" fill="#A3A9B6"/>
</svg>
