<svg width="20" height="20" viewBox="0 0 20 20" fill="none" xmlns="http://www.w3.org/2000/svg">
<path fill-rule="evenodd" clip-rule="evenodd" d="M6.99188 3.47704C7.38968 2.15103 8.62438 1.25 10 1.25C11.3756 1.25 12.6103 2.15103 13.0081 3.47704L13.0254 3.53449C14.3437 3.68154 15.654 3.925 16.9456 4.26488L18.0757 4.5623C18.4095 4.65014 18.6089 4.99197 18.5211 5.32578C18.4333 5.65959 18.0914 5.85899 17.7576 5.77114L16.6274 5.47373C12.2831 4.33048 7.71692 4.33048 3.37258 5.47373L2.2424 5.77114C1.90859 5.85899 1.56677 5.65959 1.47892 5.32578C1.39108 4.99197 1.59047 4.65014 1.92429 4.5623L3.05447 4.26488C4.34602 3.925 5.65629 3.68154 6.97465 3.53449L6.99188 3.47704ZM10 2.5C10.6742 2.5 11.2889 2.85903 11.624 3.41465C10.5423 3.35017 9.45771 3.35017 8.37602 3.41465C8.71109 2.85903 9.32582 2.5 10 2.5Z" fill="#C20000"/>
<path d="M3.95349 6.75578C3.91057 6.41328 3.59813 6.17043 3.25563 6.21335C2.91313 6.25627 2.67027 6.56871 2.71319 6.91121L3.82775 15.8054C4.02367 17.3688 5.35286 18.5418 6.9285 18.5418H13.0715C14.6472 18.5418 15.9764 17.3688 16.1723 15.8054L17.2868 6.91121C17.3297 6.56871 17.0869 6.25627 16.7444 6.21335C16.4019 6.17043 16.0894 6.41328 16.0465 6.75578L14.932 15.65C14.8144 16.588 14.0169 17.2918 13.0715 17.2918H6.9285C5.98312 17.2918 5.1856 16.588 5.06805 15.65L3.95349 6.75578Z" fill="#C20000"/>
<path d="M8.11651 9.89725C8.05976 9.55677 7.73774 9.32676 7.39726 9.3835C7.05678 9.44025 6.82677 9.76227 6.88351 10.1027L7.57796 14.2694C7.63471 14.6099 7.95672 14.8399 8.2972 14.7832C8.63769 14.7264 8.8677 14.4044 8.81095 14.0639L8.11651 9.89725Z" fill="#C20000"/>
<path d="M13.1165 10.1027C13.1733 9.76227 12.9432 9.44025 12.6028 9.3835C12.2623 9.32676 11.9403 9.55677 11.8835 9.89725L11.1891 14.0639C11.1323 14.4044 11.3623 14.7264 11.7028 14.7832C12.0433 14.8399 12.3653 14.6099 12.4221 14.2694L13.1165 10.1027Z" fill="#C20000"/>
</svg>
