<svg width="32" height="32" viewBox="0 0 32 32" fill="none" xmlns="http://www.w3.org/2000/svg">
<path d="M7.33325 8.40006C7.33325 7.84778 7.78097 7.40006 8.33325 7.40006H8.34659C8.89887 7.40006 9.34659 7.84778 9.34659 8.40006C9.34659 8.95235 8.89887 9.40006 8.34659 9.40006H8.33325C7.78097 9.40006 7.33325 8.95235 7.33325 8.40006Z" fill="#16161D"/>
<path fill-rule="evenodd" clip-rule="evenodd" d="M6.33325 2.33333C4.12411 2.33333 2.33325 4.12419 2.33325 6.33333V10.3333C2.33325 12.5425 4.12411 14.3333 6.33325 14.3333H10.3333C12.5424 14.3333 14.3333 12.5425 14.3333 10.3333V6.33333C14.3333 4.12419 12.5424 2.33333 10.3333 2.33333H6.33325ZM4.33325 6.33333C4.33325 5.22876 5.22868 4.33333 6.33325 4.33333H10.3333C11.4378 4.33333 12.3333 5.22876 12.3333 6.33333V10.3333C12.3333 11.4379 11.4378 12.3333 10.3333 12.3333H6.33325C5.22868 12.3333 4.33325 11.4379 4.33325 10.3333V6.33333Z" fill="#16161D"/>
<path d="M20.6821 23C21.2344 22.9999 21.6822 23.4476 21.6822 23.9999L21.6825 27.3332C21.6826 27.8855 21.2349 28.3333 20.6826 28.3333C20.1303 28.3334 19.6826 27.8857 19.6825 27.3334L19.6822 24.0001C19.6822 23.4478 20.1298 23.0001 20.6821 23Z" fill="#16161D"/>
<path d="M23.9999 26.3333C23.4476 26.3333 22.9999 26.781 22.9999 27.3333C22.9999 27.8856 23.4476 28.3333 23.9999 28.3333H24.0133C24.5655 28.3333 25.0133 27.8856 25.0133 27.3333C25.0133 26.781 24.5655 26.3333 24.0133 26.3333H23.9999Z" fill="#16161D"/>
<path d="M26.9999 20.6667C26.9999 20.1144 27.4476 19.6667 27.9999 19.6667H28.0133C28.5655 19.6667 29.0133 20.1144 29.0133 20.6667C29.0133 21.219 28.5655 21.6667 28.0133 21.6667H27.9999C27.4476 21.6667 26.9999 21.219 26.9999 20.6667Z" fill="#16161D"/>
<path d="M23.9999 23C23.4476 23 22.9999 23.4477 22.9999 24C22.9999 24.5523 23.4476 25 23.9999 25H26.4661V27.3333C26.4661 27.8856 26.9138 28.3333 27.4661 28.3333C28.0183 28.3333 28.4661 27.8856 28.4661 27.3333V24C28.4661 23.4477 28.0183 23 27.4661 23H23.9999Z" fill="#16161D"/>
<path d="M19.6666 20.6667C19.6666 20.1144 20.1143 19.6667 20.6666 19.6667H23.9999C24.5522 19.6667 24.9999 20.1144 24.9999 20.6667C24.9999 21.219 24.5522 21.6667 23.9999 21.6667H20.6666C20.1143 21.6667 19.6666 21.219 19.6666 20.6667Z" fill="#16161D"/>
<path d="M7.33325 23.7334C7.33325 23.1811 7.78097 22.7334 8.33325 22.7334H8.34659C8.89887 22.7334 9.34659 23.1811 9.34659 23.7334C9.34659 24.2857 8.89887 24.7334 8.34659 24.7334H8.33325C7.78097 24.7334 7.33325 24.2857 7.33325 23.7334Z" fill="#16161D"/>
<path fill-rule="evenodd" clip-rule="evenodd" d="M2.33325 21.6667C2.33325 19.4575 4.12411 17.6667 6.33325 17.6667H10.3333C12.5424 17.6667 14.3333 19.4575 14.3333 21.6667V25.6667C14.3333 27.8758 12.5424 29.6667 10.3333 29.6667H6.33325C4.12411 29.6667 2.33325 27.8758 2.33325 25.6667V21.6667ZM6.33325 19.6667C5.22868 19.6667 4.33325 20.5621 4.33325 21.6667V25.6667C4.33325 26.7712 5.22868 27.6667 6.33325 27.6667H10.3333C11.4378 27.6667 12.3333 26.7712 12.3333 25.6667V21.6667C12.3333 20.5621 11.4378 19.6667 10.3333 19.6667H6.33325Z" fill="#16161D"/>
<path d="M23.6666 7.40006C23.1143 7.40006 22.6666 7.84778 22.6666 8.40006C22.6666 8.95235 23.1143 9.40006 23.6666 9.40006H23.6799C24.2322 9.40006 24.6799 8.95235 24.6799 8.40006C24.6799 7.84778 24.2322 7.40006 23.6799 7.40006H23.6666Z" fill="#16161D"/>
<path fill-rule="evenodd" clip-rule="evenodd" d="M21.6666 2.33333C19.4574 2.33333 17.6666 4.12419 17.6666 6.33333V10.3333C17.6666 12.5425 19.4574 14.3333 21.6666 14.3333H25.6666C27.8757 14.3333 29.6666 12.5425 29.6666 10.3333V6.33333C29.6666 4.12419 27.8757 2.33333 25.6666 2.33333H21.6666ZM19.6666 6.33333C19.6666 5.22876 20.562 4.33333 21.6666 4.33333H25.6666C26.7712 4.33333 27.6666 5.22876 27.6666 6.33333V10.3333C27.6666 11.4379 26.7712 12.3333 25.6666 12.3333H21.6666C20.562 12.3333 19.6666 11.4379 19.6666 10.3333V6.33333Z" fill="#16161D"/>
</svg>
