<svg width="16" height="16" viewBox="0 0 16 16" fill="none" xmlns="http://www.w3.org/2000/svg">
<path opacity="0.4" d="M7.16667 1.63333C7.62667 1.24 8.38 1.24 8.84667 1.63333L9.9 2.54C10.1 2.71333 10.4733 2.85333 10.74 2.85333H11.8733C12.58 2.85333 13.16 3.43333 13.16 4.14V5.27333C13.16 5.53333 13.3 5.91333 13.4733 6.11333L14.38 7.16667C14.7733 7.62667 14.7733 8.38 14.38 8.84667L13.4733 9.9C13.3 10.1 13.16 10.4733 13.16 10.74V11.8733C13.16 12.58 12.58 13.16 11.8733 13.16H10.74C10.48 13.16 10.1 13.3 9.9 13.4733L8.84667 14.38C8.38667 14.7733 7.63334 14.7733 7.16667 14.38L6.11334 13.4733C5.91334 13.3 5.54 13.16 5.27334 13.16H4.12C3.41334 13.16 2.83334 12.58 2.83334 11.8733V10.7333C2.83334 10.4733 2.69334 10.1 2.52667 9.9L1.62667 8.84C1.24 8.38 1.24 7.63333 1.62667 7.17333L2.52667 6.11333C2.69334 5.91333 2.83334 5.54 2.83334 5.28V4.13333C2.83334 3.42667 3.41334 2.84667 4.12 2.84667H5.27334C5.53334 2.84667 5.91334 2.70667 6.11334 2.53333L7.16667 1.63333Z" fill="#FAFAFA"/>
<path d="M7.19333 10.1133C7.06 10.1133 6.93333 10.06 6.84 9.96667L5.22667 8.35333C5.03333 8.16 5.03333 7.84 5.22667 7.64667C5.42 7.45333 5.74 7.45333 5.93333 7.64667L7.19333 8.90667L10.06 6.04C10.2533 5.84667 10.5733 5.84667 10.7667 6.04C10.96 6.23333 10.96 6.55333 10.7667 6.74667L7.54666 9.96667C7.45333 10.06 7.32666 10.1133 7.19333 10.1133Z" fill="#FAFAFA"/>
</svg>
