<svg width="49" height="20" viewBox="0 0 49 20" fill="none" xmlns="http://www.w3.org/2000/svg">
<path d="M48.9664 7.24932C48.7421 5.10407 47.3513 3.485 46.2629 2.51612C46.1984 2.45873 46.0978 2.51532 46.113 2.6004C46.2504 3.37141 46.474 5.51867 45.0631 7.08316C43.4511 8.87 40.615 8.88766 38.834 7.99866C35.8092 6.48835 36.9408 2.91828 34.0169 1.00862C31.6727 -0.522558 27.743 -0.319068 25.3014 1.67849C24.8351 2.05978 24.1625 2.05978 23.6966 1.67849C21.255 -0.319068 17.3257 -0.522558 14.9811 1.00862C12.0568 2.91828 13.1884 6.48835 10.164 7.99866C8.38301 8.88807 5.54685 8.8704 3.93489 7.08316C2.52363 5.51907 2.74755 3.37181 2.88495 2.6004C2.90017 2.51532 2.79963 2.45913 2.73513 2.51612C1.64674 3.485 0.255904 5.10407 0.0315754 7.24932C-0.38223 11.2063 3.29956 15.7461 9.41091 17.3354C9.49062 17.3563 9.50385 17.4635 9.43174 17.5036C8.94342 17.7733 8.21075 18.0968 7.27458 18.2421C6.58197 18.3497 5.95986 18.332 5.4455 18.2666C5.33855 18.2529 5.30129 18.4046 5.40264 18.4424C12.7029 21.164 19.6455 20.2425 22.8366 16.2767C23.3028 15.6971 23.85 14.8522 24.2566 13.6606C24.336 13.4278 24.664 13.4278 24.7434 13.6606C25.15 14.8526 25.6972 15.6975 26.1634 16.2767C29.3541 20.2425 36.2971 21.164 43.5974 18.4424C43.6987 18.4046 43.6615 18.2529 43.5545 18.2666C43.0401 18.332 42.4176 18.3497 41.7254 18.2421C40.7888 18.0964 40.0566 17.7729 39.5683 17.5036C39.4962 17.4639 39.5094 17.3563 39.5891 17.3354C45.7004 15.7461 49.3822 11.2063 48.9684 7.24932H48.9664Z" fill="#4B45E6"/>
</svg>
