<svg width="24" height="24" viewBox="0 0 24 24" fill="none" xmlns="http://www.w3.org/2000/svg">
<path fill-rule="evenodd" clip-rule="evenodd" d="M15.9449 2.75C15.1146 2.75 14.4414 3.42315 14.4414 4.25352C14.4414 5.08389 15.1146 5.75704 15.9449 5.75704C16.7753 5.75704 17.4484 5.08389 17.4484 4.25352C17.4484 3.42315 16.7753 2.75 15.9449 2.75ZM12.9414 4.25352C12.9414 2.59472 14.2861 1.25 15.9449 1.25C17.6037 1.25 18.9484 2.59472 18.9484 4.25352C18.9484 5.91232 17.6037 7.25704 15.9449 7.25704C15.2113 7.25704 14.5392 6.99405 14.0176 6.55721L9.38189 9.92864C9.55679 10.3497 9.65333 10.8115 9.65333 11.2959C9.65333 11.7697 9.56095 12.2219 9.39322 12.6356L14.2335 15.9123C14.9908 15.0405 16.1075 14.4893 17.3529 14.4893C19.634 14.4893 21.4832 16.3384 21.4832 18.6195C21.4832 20.9006 19.634 22.7498 17.3529 22.7498C15.0718 22.7498 13.2227 20.9006 13.2227 18.6195C13.2227 18.1235 13.3101 17.6478 13.4705 17.2072L8.54954 13.8758C7.90925 14.4873 7.0417 14.8628 6.08643 14.8628C4.11649 14.8628 2.51953 13.2659 2.51953 11.2959C2.51953 9.32596 4.11649 7.729 6.08643 7.729C7.03082 7.729 7.88949 8.09602 8.52758 8.6952L13.1433 5.33833C13.0129 5.00185 12.9414 4.63604 12.9414 4.25352ZM17.3529 15.9893C15.9003 15.9893 14.7227 17.1669 14.7227 18.6195C14.7227 20.0722 15.9003 21.2498 17.3529 21.2498C18.8056 21.2498 19.9832 20.0722 19.9832 18.6195C19.9832 17.1669 18.8056 15.9893 17.3529 15.9893ZM4.01953 11.2959C4.01953 10.1544 4.94491 9.229 6.08643 9.229C7.22795 9.229 8.15333 10.1544 8.15333 11.2959C8.15333 12.4374 7.22795 13.3628 6.08643 13.3628C4.94491 13.3628 4.01953 12.4374 4.01953 11.2959Z" fill="#202A37"/>
</svg>
