<svg width="32" height="32" viewBox="0 0 32 32" fill="none" xmlns="http://www.w3.org/2000/svg">
<path d="M8.71883 14.023C8.24054 13.7469 7.62895 13.9107 7.35281 14.389C7.07666 14.8673 7.24054 15.4789 7.71883 15.755L7.72845 15.7606C8.20675 16.0367 8.81834 15.8729 9.09448 15.3946C9.37062 14.9163 9.20675 14.3047 8.72845 14.0286L8.71883 14.023Z" fill="#A3A9B6"/>
<path fill-rule="evenodd" clip-rule="evenodd" d="M14.9053 1.83424C12.2973 1.13541 9.61652 2.68315 8.91769 5.29121L8.10255 8.33336H6.55564C3.85558 8.33336 1.66675 10.5222 1.66675 13.2222V25.4445C1.66675 28.1445 3.85558 30.3334 6.55564 30.3334H18.7779C21.2094 30.3334 23.2263 28.5582 23.6035 26.2332C25.2078 25.7814 26.5414 24.52 27.0047 22.791L30.1681 10.9852C30.8669 8.37717 29.3191 5.69641 26.7111 4.99759L14.9053 1.83424ZM23.6667 24.0615C24.3363 23.6957 24.8602 23.0671 25.0729 22.2733L28.2362 10.4676C28.6492 8.92647 27.7346 7.34238 26.1935 6.92944L14.3877 3.76609C12.8466 3.35315 11.2625 4.26772 10.8495 5.80885L10.1731 8.33336H18.7779C21.4779 8.33336 23.6667 10.5222 23.6667 13.2222V24.0615ZM3.66675 13.2222C3.66675 11.6268 4.96015 10.3334 6.55564 10.3334H18.7779C20.3733 10.3334 21.6667 11.6268 21.6667 13.2222V17.1802C20.7913 16.623 19.8519 16.2512 18.8759 16.1536C15.669 15.8332 13.3882 17.3599 11.4113 19.1823C10.7916 19.7536 10.163 20.3922 9.54286 21.0222C9.19819 21.3723 8.85615 21.7198 8.51973 22.0515C7.54868 23.0091 6.55528 23.9093 5.44406 24.6499C4.92352 24.9969 4.30476 25.3335 3.67134 25.6087C3.66829 25.5543 3.66675 25.4996 3.66675 25.4445V13.2222ZM18.677 18.1437C19.6085 18.2368 20.6377 18.7581 21.6667 19.6992V25.4445C21.6667 27.04 20.3733 28.3334 18.7779 28.3334H6.55564C5.73544 28.3334 4.99507 27.9915 4.46921 27.4426C5.21636 27.118 5.9388 26.7237 6.55329 26.3141C7.82186 25.4686 8.92111 24.4646 9.92405 23.4756C10.3091 23.0958 10.6715 22.7273 11.0235 22.3695C11.6149 21.7681 12.177 21.1966 12.7669 20.6528C14.6001 18.9629 16.3283 17.909 18.677 18.1437Z" fill="#A3A9B6"/>
</svg>
