<svg width="32" height="32" viewBox="0 0 32 32" fill="none" xmlns="http://www.w3.org/2000/svg">
<path d="M14.3333 16C14.3333 15.4477 14.781 15 15.3333 15H22C22.5523 15 23 15.4477 23 16C23 16.5523 22.5523 17 22 17H15.3333C14.781 17 14.3333 16.5523 14.3333 16Z" fill="#A3A9B6"/>
<path d="M15.3333 20.3334C14.781 20.3334 14.3333 20.7811 14.3333 21.3334C14.3333 21.8856 14.781 22.3334 15.3333 22.3334H18C18.5523 22.3334 19 21.8856 19 21.3334C19 20.7811 18.5523 20.3334 18 20.3334H15.3333Z" fill="#A3A9B6"/>
<path fill-rule="evenodd" clip-rule="evenodd" d="M3 7.33335C3 4.20374 5.53705 1.66669 8.66667 1.66669H20.6667C22.3235 1.66669 23.6667 3.00983 23.6667 4.66669V7.00966C26.6411 7.1822 29 9.64897 29 12.6667V24.6667C29 27.7963 26.4629 30.3334 23.3333 30.3334H14C10.9792 30.3334 8.51048 27.9697 8.34246 24.9909C5.3637 24.8229 3 22.3542 3 19.3334V7.33335ZM21.6667 4.80828V7.00002H16.1578L21.6667 4.80828ZM19.1259 3.66669L10.2345 7.20419L10.2357 7.20718C9.12178 7.64531 8.33333 8.73059 8.33333 10V22.9851C6.4645 22.8167 5 21.246 5 19.3334V7.33335C5 5.30831 6.64162 3.66669 8.66667 3.66669H19.1259ZM11.3333 9.00002C10.781 9.00002 10.3333 9.44774 10.3333 10V24.6667C10.3333 26.6917 11.975 28.3334 14 28.3334H23.3333C25.3584 28.3334 27 26.6917 27 24.6667V12.6667C27 10.6416 25.3584 9.00002 23.3333 9.00002H11.3333Z" fill="#A3A9B6"/>
</svg>
