<svg width="32" height="32" viewBox="0 0 32 32" fill="none" xmlns="http://www.w3.org/2000/svg">
<path d="M7.60034 12.7428C7.60034 8.10923 10.9964 4.33331 16.0099 4.33331C21.0233 4.33331 24.4194 8.10923 24.4194 12.7428C24.4194 13.7852 24.336 14.8269 24.18 15.8491C24.0966 16.3951 24.4717 16.9052 25.0177 16.9885C25.5636 17.0719 26.0738 16.6968 26.1571 16.1508C26.3275 15.034 26.4194 13.8914 26.4194 12.7428C26.4194 7.06713 22.1894 2.33331 16.0099 2.33331C9.83037 2.33331 5.60034 7.06713 5.60034 12.7428C5.60034 16.9497 6.83316 21.1068 8.69178 24.2343C10.5093 27.2927 13.1223 29.6666 16.0099 29.6666C17.2424 29.6666 18.4243 29.2273 19.4951 28.5142C19.9548 28.208 20.0792 27.5872 19.7731 27.1275C19.467 26.6679 18.8461 26.5434 18.3865 26.8496C17.5588 27.4008 16.7565 27.6666 16.0099 27.6666C14.221 27.6666 12.1292 26.1037 10.4111 23.2126C8.73406 20.3906 7.60034 16.5859 7.60034 12.7428Z" fill="#A3A9B6"/>
<path fill-rule="evenodd" clip-rule="evenodd" d="M9.94409 12.7428C9.94409 9.39223 12.6602 6.67609 16.0108 6.67609C19.3613 6.67609 22.0774 9.39223 22.0774 12.7428C22.0774 16.0933 19.3613 18.8094 16.0108 18.8094C12.6602 18.8094 9.94409 16.0933 9.94409 12.7428ZM16.0108 8.67609C13.7648 8.67609 11.9441 10.4968 11.9441 12.7428C11.9441 14.9887 13.7648 16.8094 16.0108 16.8094C18.2567 16.8094 20.0774 14.9887 20.0774 12.7428C20.0774 10.4968 18.2567 8.67609 16.0108 8.67609Z" fill="#A3A9B6"/>
<path fill-rule="evenodd" clip-rule="evenodd" d="M28.179 19.2114C27.2837 18.4164 26.3186 18.2196 25.4545 18.3901C24.9556 18.4885 24.5272 18.7011 24.1876 18.9312C23.8481 18.7011 23.4197 18.4885 22.9208 18.3901C22.0566 18.2196 21.0916 18.4164 20.1962 19.2114C19.4635 19.8419 18.9067 21.0178 19.0132 22.3396C19.0832 23.2996 19.5774 24.2069 20.2587 25.0089C20.9499 25.8226 21.8979 26.6049 23.0206 27.3246C23.7318 27.7806 24.6435 27.7807 25.3548 27.3245C26.4774 26.6046 27.4244 25.8221 28.1146 25.0083C28.7951 24.2059 29.2877 23.2989 29.3577 22.3396C29.464 21.0213 28.9144 19.8442 28.179 19.2114ZM25.8416 20.3523C25.5401 20.4117 25.2493 20.6051 25.0534 20.7939C24.5718 21.2582 23.8035 21.2582 23.3218 20.7939C23.126 20.6051 22.8352 20.4117 22.5337 20.3523C22.2925 20.3047 21.958 20.3198 21.5199 20.7108L21.5029 20.7256C21.2676 20.9262 20.9491 21.4751 21.0069 22.1815L21.0078 22.192C21.0346 22.5675 21.2479 23.0842 21.783 23.7141C22.3095 24.3339 23.0889 24.9927 24.1 25.641C24.1535 25.6752 24.2218 25.6752 24.2751 25.641C25.2857 24.9929 26.0638 24.3343 26.5893 23.7147C27.1232 23.0852 27.3363 22.5683 27.3631 22.192L27.3639 22.1815C27.422 21.4715 27.105 20.9239 26.8723 20.7256L26.8554 20.7107C26.4172 20.3198 26.0827 20.3047 25.8416 20.3523Z" fill="#A3A9B6"/>
</svg>
