<svg width="160" height="160" viewBox="0 0 160 160" fill="none" xmlns="http://www.w3.org/2000/svg">
<mask id="mask0_2801_20503" style="mask-type:luminance" maskUnits="userSpaceOnUse" x="0" y="0" width="160" height="160">
<path d="M160 0H0V160H160V0Z" fill="white"/>
</mask>
<g mask="url(#mask0_2801_20503)">
<path d="M160 0H0V160H160V0Z" fill="#FEFEFE"/>
</g>
<mask id="mask1_2801_20503" style="mask-type:luminance" maskUnits="userSpaceOnUse" x="3" y="3" width="154" height="154">
<path d="M45.2175 3.47826H40.5798V8.11594H45.2175V3.47826Z" fill="white"/>
<path d="M59.1304 3.47826H54.4927V8.11594H59.1304V3.47826Z" fill="white"/>
<path d="M73.0434 3.47826H68.4058V8.11594H73.0434V3.47826Z" fill="white"/>
<path d="M82.3188 3.47826H77.6812V8.11594H82.3188V3.47826Z" fill="white"/>
<path d="M91.5942 3.47826H86.9565V8.11594H91.5942V3.47826Z" fill="white"/>
<path d="M96.2319 3.47826H91.5942V8.11594H96.2319V3.47826Z" fill="white"/>
<path d="M110.145 3.47826H105.507V8.11594H110.145V3.47826Z" fill="white"/>
<path d="M114.783 3.47826H110.145V8.11594H114.783V3.47826Z" fill="white"/>
<path d="M49.855 8.11594H45.2173V12.7536H49.855V8.11594Z" fill="white"/>
<path d="M63.7681 8.11594H59.1304V12.7536H63.7681V8.11594Z" fill="white"/>
<path d="M68.4058 8.11594H63.7681V12.7536H68.4058V8.11594Z" fill="white"/>
<path d="M86.9565 8.11594H82.3188V12.7536H86.9565V8.11594Z" fill="white"/>
<path d="M105.507 8.11594H100.87V12.7536H105.507V8.11594Z" fill="white"/>
<path d="M110.145 8.11594H105.507V12.7536H110.145V8.11594Z" fill="white"/>
<path d="M114.783 8.11594H110.145V12.7536H114.783V8.11594Z" fill="white"/>
<path d="M119.42 8.11594H114.783V12.7536H119.42V8.11594Z" fill="white"/>
<path d="M45.2175 12.7536H40.5798V17.3913H45.2175V12.7536Z" fill="white"/>
<path d="M49.855 12.7536H45.2173V17.3913H49.855V12.7536Z" fill="white"/>
<path d="M54.4927 12.7536H49.855V17.3913H54.4927V12.7536Z" fill="white"/>
<path d="M59.1304 12.7536H54.4927V17.3913H59.1304V12.7536Z" fill="white"/>
<path d="M77.6811 12.7536H73.0435V17.3913H77.6811V12.7536Z" fill="white"/>
<path d="M82.3188 12.7536H77.6812V17.3913H82.3188V12.7536Z" fill="white"/>
<path d="M86.9565 12.7536H82.3188V17.3913H86.9565V12.7536Z" fill="white"/>
<path d="M96.2319 12.7536H91.5942V17.3913H96.2319V12.7536Z" fill="white"/>
<path d="M119.42 12.7536H114.783V17.3913H119.42V12.7536Z" fill="white"/>
<path d="M45.2175 17.3913H40.5798V22.029H45.2175V17.3913Z" fill="white"/>
<path d="M59.1304 17.3913H54.4927V22.029H59.1304V17.3913Z" fill="white"/>
<path d="M63.7681 17.3913H59.1304V22.029H63.7681V17.3913Z" fill="white"/>
<path d="M68.4058 17.3913H63.7681V22.029H68.4058V17.3913Z" fill="white"/>
<path d="M73.0434 17.3913H68.4058V22.029H73.0434V17.3913Z" fill="white"/>
<path d="M86.9565 17.3913H82.3188V22.029H86.9565V17.3913Z" fill="white"/>
<path d="M96.2319 17.3913H91.5942V22.029H96.2319V17.3913Z" fill="white"/>
<path d="M105.507 17.3913H100.87V22.029H105.507V17.3913Z" fill="white"/>
<path d="M114.783 17.3913H110.145V22.029H114.783V17.3913Z" fill="white"/>
<path d="M54.4927 22.029H49.855V26.6667H54.4927V22.029Z" fill="white"/>
<path d="M63.7681 22.029H59.1304V26.6667H63.7681V22.029Z" fill="white"/>
<path d="M68.4058 22.029H63.7681V26.6667H68.4058V22.029Z" fill="white"/>
<path d="M73.0434 22.029H68.4058V26.6667H73.0434V22.029Z" fill="white"/>
<path d="M77.6811 22.029H73.0435V26.6667H77.6811V22.029Z" fill="white"/>
<path d="M96.2319 22.029H91.5942V26.6667H96.2319V22.029Z" fill="white"/>
<path d="M105.507 22.029H100.87V26.6667H105.507V22.029Z" fill="white"/>
<path d="M110.145 22.029H105.507V26.6667H110.145V22.029Z" fill="white"/>
<path d="M45.2175 26.6667H40.5798V31.3043H45.2175V26.6667Z" fill="white"/>
<path d="M49.855 26.6667H45.2173V31.3043H49.855V26.6667Z" fill="white"/>
<path d="M54.4927 26.6667H49.855V31.3043H54.4927V26.6667Z" fill="white"/>
<path d="M63.7681 26.6667H59.1304V31.3043H63.7681V26.6667Z" fill="white"/>
<path d="M68.4058 26.6667H63.7681V31.3043H68.4058V26.6667Z" fill="white"/>
<path d="M73.0434 26.6667H68.4058V31.3043H73.0434V26.6667Z" fill="white"/>
<path d="M77.6811 26.6667H73.0435V31.3043H77.6811V26.6667Z" fill="white"/>
<path d="M82.3188 26.6667H77.6812V31.3043H82.3188V26.6667Z" fill="white"/>
<path d="M91.5942 26.6667H86.9565V31.3043H91.5942V26.6667Z" fill="white"/>
<path d="M100.87 26.6667H96.2319V31.3043H100.87V26.6667Z" fill="white"/>
<path d="M105.507 26.6667H100.87V31.3043H105.507V26.6667Z" fill="white"/>
<path d="M114.783 26.6667H110.145V31.3043H114.783V26.6667Z" fill="white"/>
<path d="M45.2175 31.3044H40.5798V35.942H45.2175V31.3044Z" fill="white"/>
<path d="M54.4927 31.3044H49.855V35.942H54.4927V31.3044Z" fill="white"/>
<path d="M63.7681 31.3044H59.1304V35.942H63.7681V31.3044Z" fill="white"/>
<path d="M73.0434 31.3044H68.4058V35.942H73.0434V31.3044Z" fill="white"/>
<path d="M82.3188 31.3044H77.6812V35.942H82.3188V31.3044Z" fill="white"/>
<path d="M91.5942 31.3044H86.9565V35.942H91.5942V31.3044Z" fill="white"/>
<path d="M100.87 31.3044H96.2319V35.942H100.87V31.3044Z" fill="white"/>
<path d="M110.145 31.3044H105.507V35.942H110.145V31.3044Z" fill="white"/>
<path d="M119.42 31.3044H114.783V35.942H119.42V31.3044Z" fill="white"/>
<path d="M45.2175 35.942H40.5798V40.5797H45.2175V35.942Z" fill="white"/>
<path d="M49.855 35.942H45.2173V40.5797H49.855V35.942Z" fill="white"/>
<path d="M54.4927 35.942H49.855V40.5797H54.4927V35.942Z" fill="white"/>
<path d="M59.1304 35.942H54.4927V40.5797H59.1304V35.942Z" fill="white"/>
<path d="M68.4058 35.942H63.7681V40.5797H68.4058V35.942Z" fill="white"/>
<path d="M82.3188 35.942H77.6812V40.5797H82.3188V35.942Z" fill="white"/>
<path d="M86.9565 35.942H82.3188V40.5797H86.9565V35.942Z" fill="white"/>
<path d="M91.5942 35.942H86.9565V40.5797H91.5942V35.942Z" fill="white"/>
<path d="M96.2319 35.942H91.5942V40.5797H96.2319V35.942Z" fill="white"/>
<path d="M100.87 35.942H96.2319V40.5797H100.87V35.942Z" fill="white"/>
<path d="M105.507 35.942H100.87V40.5797H105.507V35.942Z" fill="white"/>
<path d="M110.145 35.942H105.507V40.5797H110.145V35.942Z" fill="white"/>
<path d="M119.42 35.942H114.783V40.5797H119.42V35.942Z" fill="white"/>
<path d="M12.7536 40.5797H8.11597V45.2174H12.7536V40.5797Z" fill="white"/>
<path d="M22.029 40.5797H17.3914V45.2174H22.029V40.5797Z" fill="white"/>
<path d="M31.3044 40.5797H26.6667V45.2174H31.3044V40.5797Z" fill="white"/>
<path d="M35.9421 40.5797H31.3044V45.2174H35.9421V40.5797Z" fill="white"/>
<path d="M40.5798 40.5797H35.9421V45.2174H40.5798V40.5797Z" fill="white"/>
<path d="M45.2175 40.5797H40.5798V45.2174H45.2175V40.5797Z" fill="white"/>
<path d="M49.855 40.5797H45.2173V45.2174H49.855V40.5797Z" fill="white"/>
<path d="M54.4927 40.5797H49.855V45.2174H54.4927V40.5797Z" fill="white"/>
<path d="M59.1304 40.5797H54.4927V45.2174H59.1304V40.5797Z" fill="white"/>
<path d="M68.4058 40.5797H63.7681V45.2174H68.4058V40.5797Z" fill="white"/>
<path d="M73.0434 40.5797H68.4058V45.2174H73.0434V40.5797Z" fill="white"/>
<path d="M77.6811 40.5797H73.0435V45.2174H77.6811V40.5797Z" fill="white"/>
<path d="M96.2319 40.5797H91.5942V45.2174H96.2319V40.5797Z" fill="white"/>
<path d="M100.87 40.5797H96.2319V45.2174H100.87V40.5797Z" fill="white"/>
<path d="M105.507 40.5797H100.87V45.2174H105.507V40.5797Z" fill="white"/>
<path d="M110.145 40.5797H105.507V45.2174H110.145V40.5797Z" fill="white"/>
<path d="M119.42 40.5797H114.783V45.2174H119.42V40.5797Z" fill="white"/>
<path d="M124.058 40.5797H119.42V45.2174H124.058V40.5797Z" fill="white"/>
<path d="M128.696 40.5797H124.058V45.2174H128.696V40.5797Z" fill="white"/>
<path d="M133.333 40.5797H128.696V45.2174H133.333V40.5797Z" fill="white"/>
<path d="M142.609 40.5797H137.971V45.2174H142.609V40.5797Z" fill="white"/>
<path d="M147.246 40.5797H142.609V45.2174H147.246V40.5797Z" fill="white"/>
<path d="M156.522 40.5797H151.884V45.2174H156.522V40.5797Z" fill="white"/>
<path d="M17.3913 45.2174H12.7537V49.8551H17.3913V45.2174Z" fill="white"/>
<path d="M22.029 45.2174H17.3914V49.8551H22.029V45.2174Z" fill="white"/>
<path d="M40.5798 45.2174H35.9421V49.8551H40.5798V45.2174Z" fill="white"/>
<path d="M45.2175 45.2174H40.5798V49.8551H45.2175V45.2174Z" fill="white"/>
<path d="M49.855 45.2174H45.2173V49.8551H49.855V45.2174Z" fill="white"/>
<path d="M54.4927 45.2174H49.855V49.8551H54.4927V45.2174Z" fill="white"/>
<path d="M63.7681 45.2174H59.1304V49.8551H63.7681V45.2174Z" fill="white"/>
<path d="M68.4058 45.2174H63.7681V49.8551H68.4058V45.2174Z" fill="white"/>
<path d="M91.5942 45.2174H86.9565V49.8551H91.5942V45.2174Z" fill="white"/>
<path d="M100.87 45.2174H96.2319V49.8551H100.87V45.2174Z" fill="white"/>
<path d="M119.42 45.2174H114.783V49.8551H119.42V45.2174Z" fill="white"/>
<path d="M124.058 45.2174H119.42V49.8551H124.058V45.2174Z" fill="white"/>
<path d="M128.696 45.2174H124.058V49.8551H128.696V45.2174Z" fill="white"/>
<path d="M133.333 45.2174H128.696V49.8551H133.333V45.2174Z" fill="white"/>
<path d="M156.522 45.2174H151.884V49.8551H156.522V45.2174Z" fill="white"/>
<path d="M8.11595 49.8551H3.47827V54.4928H8.11595V49.8551Z" fill="white"/>
<path d="M31.3044 49.8551H26.6667V54.4928H31.3044V49.8551Z" fill="white"/>
<path d="M35.9421 49.8551H31.3044V54.4928H35.9421V49.8551Z" fill="white"/>
<path d="M40.5798 49.8551H35.9421V54.4928H40.5798V49.8551Z" fill="white"/>
<path d="M45.2175 49.8551H40.5798V54.4928H45.2175V49.8551Z" fill="white"/>
<path d="M54.4927 49.8551H49.855V54.4928H54.4927V49.8551Z" fill="white"/>
<path d="M59.1304 49.8551H54.4927V54.4928H59.1304V49.8551Z" fill="white"/>
<path d="M68.4058 49.8551H63.7681V54.4928H68.4058V49.8551Z" fill="white"/>
<path d="M73.0434 49.8551H68.4058V54.4928H73.0434V49.8551Z" fill="white"/>
<path d="M82.3188 49.8551H77.6812V54.4928H82.3188V49.8551Z" fill="white"/>
<path d="M86.9565 49.8551H82.3188V54.4928H86.9565V49.8551Z" fill="white"/>
<path d="M96.2319 49.8551H91.5942V54.4928H96.2319V49.8551Z" fill="white"/>
<path d="M105.507 49.8551H100.87V54.4928H105.507V49.8551Z" fill="white"/>
<path d="M110.145 49.8551H105.507V54.4928H110.145V49.8551Z" fill="white"/>
<path d="M124.058 49.8551H119.42V54.4928H124.058V49.8551Z" fill="white"/>
<path d="M133.333 49.8551H128.696V54.4928H133.333V49.8551Z" fill="white"/>
<path d="M137.971 49.8551H133.333V54.4928H137.971V49.8551Z" fill="white"/>
<path d="M147.246 49.8551H142.609V54.4928H147.246V49.8551Z" fill="white"/>
<path d="M156.522 49.8551H151.884V54.4928H156.522V49.8551Z" fill="white"/>
<path d="M8.11595 54.4927H3.47827V59.1304H8.11595V54.4927Z" fill="white"/>
<path d="M12.7536 54.4927H8.11597V59.1304H12.7536V54.4927Z" fill="white"/>
<path d="M17.3913 54.4927H12.7537V59.1304H17.3913V54.4927Z" fill="white"/>
<path d="M40.5798 54.4927H35.9421V59.1304H40.5798V54.4927Z" fill="white"/>
<path d="M49.855 54.4927H45.2173V59.1304H49.855V54.4927Z" fill="white"/>
<path d="M54.4927 54.4927H49.855V59.1304H54.4927V54.4927Z" fill="white"/>
<path d="M63.7681 54.4927H59.1304V59.1304H63.7681V54.4927Z" fill="white"/>
<path d="M68.4058 54.4927H63.7681V59.1304H68.4058V54.4927Z" fill="white"/>
<path d="M73.0434 54.4927H68.4058V59.1304H73.0434V54.4927Z" fill="white"/>
<path d="M86.9565 54.4927H82.3188V59.1304H86.9565V54.4927Z" fill="white"/>
<path d="M119.42 54.4927H114.783V59.1304H119.42V54.4927Z" fill="white"/>
<path d="M124.058 54.4927H119.42V59.1304H124.058V54.4927Z" fill="white"/>
<path d="M128.696 54.4927H124.058V59.1304H128.696V54.4927Z" fill="white"/>
<path d="M137.971 54.4927H133.333V59.1304H137.971V54.4927Z" fill="white"/>
<path d="M142.609 54.4927H137.971V59.1304H142.609V54.4927Z" fill="white"/>
<path d="M156.522 54.4927H151.884V59.1304H156.522V54.4927Z" fill="white"/>
<path d="M8.11595 59.1304H3.47827V63.7681H8.11595V59.1304Z" fill="white"/>
<path d="M17.3913 59.1304H12.7537V63.7681H17.3913V59.1304Z" fill="white"/>
<path d="M22.029 59.1304H17.3914V63.7681H22.029V59.1304Z" fill="white"/>
<path d="M35.9421 59.1304H31.3044V63.7681H35.9421V59.1304Z" fill="white"/>
<path d="M45.2175 59.1304H40.5798V63.7681H45.2175V59.1304Z" fill="white"/>
<path d="M49.855 59.1304H45.2173V63.7681H49.855V59.1304Z" fill="white"/>
<path d="M54.4927 59.1304H49.855V63.7681H54.4927V59.1304Z" fill="white"/>
<path d="M59.1304 59.1304H54.4927V63.7681H59.1304V59.1304Z" fill="white"/>
<path d="M63.7681 59.1304H59.1304V63.7681H63.7681V59.1304Z" fill="white"/>
<path d="M73.0434 59.1304H68.4058V63.7681H73.0434V59.1304Z" fill="white"/>
<path d="M77.6811 59.1304H73.0435V63.7681H77.6811V59.1304Z" fill="white"/>
<path d="M82.3188 59.1304H77.6812V63.7681H82.3188V59.1304Z" fill="white"/>
<path d="M96.2319 59.1304H91.5942V63.7681H96.2319V59.1304Z" fill="white"/>
<path d="M119.42 59.1304H114.783V63.7681H119.42V59.1304Z" fill="white"/>
<path d="M124.058 59.1304H119.42V63.7681H124.058V59.1304Z" fill="white"/>
<path d="M128.696 59.1304H124.058V63.7681H128.696V59.1304Z" fill="white"/>
<path d="M142.609 59.1304H137.971V63.7681H142.609V59.1304Z" fill="white"/>
<path d="M151.884 59.1304H147.246V63.7681H151.884V59.1304Z" fill="white"/>
<path d="M156.522 59.1304H151.884V63.7681H156.522V59.1304Z" fill="white"/>
<path d="M8.11595 63.7681H3.47827V68.4058H8.11595V63.7681Z" fill="white"/>
<path d="M12.7536 63.7681H8.11597V68.4058H12.7536V63.7681Z" fill="white"/>
<path d="M22.029 63.7681H17.3914V68.4058H22.029V63.7681Z" fill="white"/>
<path d="M31.3044 63.7681H26.6667V68.4058H31.3044V63.7681Z" fill="white"/>
<path d="M49.855 63.7681H45.2173V68.4058H49.855V63.7681Z" fill="white"/>
<path d="M54.4927 63.7681H49.855V68.4058H54.4927V63.7681Z" fill="white"/>
<path d="M63.7681 63.7681H59.1304V68.4058H63.7681V63.7681Z" fill="white"/>
<path d="M82.3188 63.7681H77.6812V68.4058H82.3188V63.7681Z" fill="white"/>
<path d="M110.145 63.7681H105.507V68.4058H110.145V63.7681Z" fill="white"/>
<path d="M114.783 63.7681H110.145V68.4058H114.783V63.7681Z" fill="white"/>
<path d="M128.696 63.7681H124.058V68.4058H128.696V63.7681Z" fill="white"/>
<path d="M137.971 63.7681H133.333V68.4058H137.971V63.7681Z" fill="white"/>
<path d="M142.609 63.7681H137.971V68.4058H142.609V63.7681Z" fill="white"/>
<path d="M151.884 63.7681H147.246V68.4058H151.884V63.7681Z" fill="white"/>
<path d="M156.522 63.7681H151.884V68.4058H156.522V63.7681Z" fill="white"/>
<path d="M12.7536 68.4058H8.11597V73.0435H12.7536V68.4058Z" fill="white"/>
<path d="M17.3913 68.4058H12.7537V73.0435H17.3913V68.4058Z" fill="white"/>
<path d="M22.029 68.4058H17.3914V73.0435H22.029V68.4058Z" fill="white"/>
<path d="M26.6667 68.4058H22.0291V73.0435H26.6667V68.4058Z" fill="white"/>
<path d="M35.9421 68.4058H31.3044V73.0435H35.9421V68.4058Z" fill="white"/>
<path d="M40.5798 68.4058H35.9421V73.0435H40.5798V68.4058Z" fill="white"/>
<path d="M54.4927 68.4058H49.855V73.0435H54.4927V68.4058Z" fill="white"/>
<path d="M59.1304 68.4058H54.4927V73.0435H59.1304V68.4058Z" fill="white"/>
<path d="M63.7681 68.4058H59.1304V73.0435H63.7681V68.4058Z" fill="white"/>
<path d="M68.4058 68.4058H63.7681V73.0435H68.4058V68.4058Z" fill="white"/>
<path d="M73.0434 68.4058H68.4058V73.0435H73.0434V68.4058Z" fill="white"/>
<path d="M86.9565 68.4058H82.3188V73.0435H86.9565V68.4058Z" fill="white"/>
<path d="M100.87 68.4058H96.2319V73.0435H100.87V68.4058Z" fill="white"/>
<path d="M105.507 68.4058H100.87V73.0435H105.507V68.4058Z" fill="white"/>
<path d="M114.783 68.4058H110.145V73.0435H114.783V68.4058Z" fill="white"/>
<path d="M119.42 68.4058H114.783V73.0435H119.42V68.4058Z" fill="white"/>
<path d="M124.058 68.4058H119.42V73.0435H124.058V68.4058Z" fill="white"/>
<path d="M128.696 68.4058H124.058V73.0435H128.696V68.4058Z" fill="white"/>
<path d="M142.609 68.4058H137.971V73.0435H142.609V68.4058Z" fill="white"/>
<path d="M151.884 68.4058H147.246V73.0435H151.884V68.4058Z" fill="white"/>
<path d="M17.3913 73.0435H12.7537V77.6811H17.3913V73.0435Z" fill="white"/>
<path d="M26.6667 73.0435H22.0291V77.6811H26.6667V73.0435Z" fill="white"/>
<path d="M31.3044 73.0435H26.6667V77.6811H31.3044V73.0435Z" fill="white"/>
<path d="M45.2175 73.0435H40.5798V77.6811H45.2175V73.0435Z" fill="white"/>
<path d="M49.855 73.0435H45.2173V77.6811H49.855V73.0435Z" fill="white"/>
<path d="M63.7681 73.0435H59.1304V77.6811H63.7681V73.0435Z" fill="white"/>
<path d="M73.0434 73.0435H68.4058V77.6811H73.0434V73.0435Z" fill="white"/>
<path d="M77.6811 73.0435H73.0435V77.6811H77.6811V73.0435Z" fill="white"/>
<path d="M82.3188 73.0435H77.6812V77.6811H82.3188V73.0435Z" fill="white"/>
<path d="M86.9565 73.0435H82.3188V77.6811H86.9565V73.0435Z" fill="white"/>
<path d="M96.2319 73.0435H91.5942V77.6811H96.2319V73.0435Z" fill="white"/>
<path d="M105.507 73.0435H100.87V77.6811H105.507V73.0435Z" fill="white"/>
<path d="M119.42 73.0435H114.783V77.6811H119.42V73.0435Z" fill="white"/>
<path d="M128.696 73.0435H124.058V77.6811H128.696V73.0435Z" fill="white"/>
<path d="M133.333 73.0435H128.696V77.6811H133.333V73.0435Z" fill="white"/>
<path d="M137.971 73.0435H133.333V77.6811H137.971V73.0435Z" fill="white"/>
<path d="M151.884 73.0435H147.246V77.6811H151.884V73.0435Z" fill="white"/>
<path d="M12.7536 77.6812H8.11597V82.3188H12.7536V77.6812Z" fill="white"/>
<path d="M17.3913 77.6812H12.7537V82.3188H17.3913V77.6812Z" fill="white"/>
<path d="M22.029 77.6812H17.3914V82.3188H22.029V77.6812Z" fill="white"/>
<path d="M31.3044 77.6812H26.6667V82.3188H31.3044V77.6812Z" fill="white"/>
<path d="M35.9421 77.6812H31.3044V82.3188H35.9421V77.6812Z" fill="white"/>
<path d="M40.5798 77.6812H35.9421V82.3188H40.5798V77.6812Z" fill="white"/>
<path d="M45.2175 77.6812H40.5798V82.3188H45.2175V77.6812Z" fill="white"/>
<path d="M63.7681 77.6812H59.1304V82.3188H63.7681V77.6812Z" fill="white"/>
<path d="M73.0434 77.6812H68.4058V82.3188H73.0434V77.6812Z" fill="white"/>
<path d="M82.3188 77.6812H77.6812V82.3188H82.3188V77.6812Z" fill="white"/>
<path d="M86.9565 77.6812H82.3188V82.3188H86.9565V77.6812Z" fill="white"/>
<path d="M91.5942 77.6812H86.9565V82.3188H91.5942V77.6812Z" fill="white"/>
<path d="M96.2319 77.6812H91.5942V82.3188H96.2319V77.6812Z" fill="white"/>
<path d="M100.87 77.6812H96.2319V82.3188H100.87V77.6812Z" fill="white"/>
<path d="M105.507 77.6812H100.87V82.3188H105.507V77.6812Z" fill="white"/>
<path d="M110.145 77.6812H105.507V82.3188H110.145V77.6812Z" fill="white"/>
<path d="M114.783 77.6812H110.145V82.3188H114.783V77.6812Z" fill="white"/>
<path d="M128.696 77.6812H124.058V82.3188H128.696V77.6812Z" fill="white"/>
<path d="M137.971 77.6812H133.333V82.3188H137.971V77.6812Z" fill="white"/>
<path d="M151.884 77.6812H147.246V82.3188H151.884V77.6812Z" fill="white"/>
<path d="M8.11595 82.3188H3.47827V86.9565H8.11595V82.3188Z" fill="white"/>
<path d="M17.3913 82.3188H12.7537V86.9565H17.3913V82.3188Z" fill="white"/>
<path d="M22.029 82.3188H17.3914V86.9565H22.029V82.3188Z" fill="white"/>
<path d="M26.6667 82.3188H22.0291V86.9565H26.6667V82.3188Z" fill="white"/>
<path d="M45.2175 82.3188H40.5798V86.9565H45.2175V82.3188Z" fill="white"/>
<path d="M54.4927 82.3188H49.855V86.9565H54.4927V82.3188Z" fill="white"/>
<path d="M63.7681 82.3188H59.1304V86.9565H63.7681V82.3188Z" fill="white"/>
<path d="M77.6811 82.3188H73.0435V86.9565H77.6811V82.3188Z" fill="white"/>
<path d="M82.3188 82.3188H77.6812V86.9565H82.3188V82.3188Z" fill="white"/>
<path d="M91.5942 82.3188H86.9565V86.9565H91.5942V82.3188Z" fill="white"/>
<path d="M100.87 82.3188H96.2319V86.9565H100.87V82.3188Z" fill="white"/>
<path d="M105.507 82.3188H100.87V86.9565H105.507V82.3188Z" fill="white"/>
<path d="M110.145 82.3188H105.507V86.9565H110.145V82.3188Z" fill="white"/>
<path d="M114.783 82.3188H110.145V86.9565H114.783V82.3188Z" fill="white"/>
<path d="M119.42 82.3188H114.783V86.9565H119.42V82.3188Z" fill="white"/>
<path d="M124.058 82.3188H119.42V86.9565H124.058V82.3188Z" fill="white"/>
<path d="M133.333 82.3188H128.696V86.9565H133.333V82.3188Z" fill="white"/>
<path d="M142.609 82.3188H137.971V86.9565H142.609V82.3188Z" fill="white"/>
<path d="M8.11595 86.9565H3.47827V91.5942H8.11595V86.9565Z" fill="white"/>
<path d="M12.7536 86.9565H8.11597V91.5942H12.7536V86.9565Z" fill="white"/>
<path d="M26.6667 86.9565H22.0291V91.5942H26.6667V86.9565Z" fill="white"/>
<path d="M35.9421 86.9565H31.3044V91.5942H35.9421V86.9565Z" fill="white"/>
<path d="M40.5798 86.9565H35.9421V91.5942H40.5798V86.9565Z" fill="white"/>
<path d="M54.4927 86.9565H49.855V91.5942H54.4927V86.9565Z" fill="white"/>
<path d="M63.7681 86.9565H59.1304V91.5942H63.7681V86.9565Z" fill="white"/>
<path d="M68.4058 86.9565H63.7681V91.5942H68.4058V86.9565Z" fill="white"/>
<path d="M73.0434 86.9565H68.4058V91.5942H73.0434V86.9565Z" fill="white"/>
<path d="M77.6811 86.9565H73.0435V91.5942H77.6811V86.9565Z" fill="white"/>
<path d="M110.145 86.9565H105.507V91.5942H110.145V86.9565Z" fill="white"/>
<path d="M119.42 86.9565H114.783V91.5942H119.42V86.9565Z" fill="white"/>
<path d="M147.246 86.9565H142.609V91.5942H147.246V86.9565Z" fill="white"/>
<path d="M151.884 86.9565H147.246V91.5942H151.884V86.9565Z" fill="white"/>
<path d="M156.522 86.9565H151.884V91.5942H156.522V86.9565Z" fill="white"/>
<path d="M8.11595 91.5942H3.47827V96.2319H8.11595V91.5942Z" fill="white"/>
<path d="M12.7536 91.5942H8.11597V96.2319H12.7536V91.5942Z" fill="white"/>
<path d="M17.3913 91.5942H12.7537V96.2319H17.3913V91.5942Z" fill="white"/>
<path d="M26.6667 91.5942H22.0291V96.2319H26.6667V91.5942Z" fill="white"/>
<path d="M40.5798 91.5942H35.9421V96.2319H40.5798V91.5942Z" fill="white"/>
<path d="M49.855 91.5942H45.2173V96.2319H49.855V91.5942Z" fill="white"/>
<path d="M59.1304 91.5942H54.4927V96.2319H59.1304V91.5942Z" fill="white"/>
<path d="M63.7681 91.5942H59.1304V96.2319H63.7681V91.5942Z" fill="white"/>
<path d="M77.6811 91.5942H73.0435V96.2319H77.6811V91.5942Z" fill="white"/>
<path d="M86.9565 91.5942H82.3188V96.2319H86.9565V91.5942Z" fill="white"/>
<path d="M91.5942 91.5942H86.9565V96.2319H91.5942V91.5942Z" fill="white"/>
<path d="M100.87 91.5942H96.2319V96.2319H100.87V91.5942Z" fill="white"/>
<path d="M105.507 91.5942H100.87V96.2319H105.507V91.5942Z" fill="white"/>
<path d="M119.42 91.5942H114.783V96.2319H119.42V91.5942Z" fill="white"/>
<path d="M124.058 91.5942H119.42V96.2319H124.058V91.5942Z" fill="white"/>
<path d="M133.333 91.5942H128.696V96.2319H133.333V91.5942Z" fill="white"/>
<path d="M8.11595 96.2319H3.47827V100.87H8.11595V96.2319Z" fill="white"/>
<path d="M12.7536 96.2319H8.11597V100.87H12.7536V96.2319Z" fill="white"/>
<path d="M17.3913 96.2319H12.7537V100.87H17.3913V96.2319Z" fill="white"/>
<path d="M22.029 96.2319H17.3914V100.87H22.029V96.2319Z" fill="white"/>
<path d="M35.9421 96.2319H31.3044V100.87H35.9421V96.2319Z" fill="white"/>
<path d="M49.855 96.2319H45.2173V100.87H49.855V96.2319Z" fill="white"/>
<path d="M54.4927 96.2319H49.855V100.87H54.4927V96.2319Z" fill="white"/>
<path d="M63.7681 96.2319H59.1304V100.87H63.7681V96.2319Z" fill="white"/>
<path d="M68.4058 96.2319H63.7681V100.87H68.4058V96.2319Z" fill="white"/>
<path d="M77.6811 96.2319H73.0435V100.87H77.6811V96.2319Z" fill="white"/>
<path d="M82.3188 96.2319H77.6812V100.87H82.3188V96.2319Z" fill="white"/>
<path d="M86.9565 96.2319H82.3188V100.87H86.9565V96.2319Z" fill="white"/>
<path d="M110.145 96.2319H105.507V100.87H110.145V96.2319Z" fill="white"/>
<path d="M119.42 96.2319H114.783V100.87H119.42V96.2319Z" fill="white"/>
<path d="M124.058 96.2319H119.42V100.87H124.058V96.2319Z" fill="white"/>
<path d="M133.333 96.2319H128.696V100.87H133.333V96.2319Z" fill="white"/>
<path d="M151.884 96.2319H147.246V100.87H151.884V96.2319Z" fill="white"/>
<path d="M17.3913 100.87H12.7537V105.507H17.3913V100.87Z" fill="white"/>
<path d="M26.6667 100.87H22.0291V105.507H26.6667V100.87Z" fill="white"/>
<path d="M54.4927 100.87H49.855V105.507H54.4927V100.87Z" fill="white"/>
<path d="M68.4058 100.87H63.7681V105.507H68.4058V100.87Z" fill="white"/>
<path d="M77.6811 100.87H73.0435V105.507H77.6811V100.87Z" fill="white"/>
<path d="M86.9565 100.87H82.3188V105.507H86.9565V100.87Z" fill="white"/>
<path d="M91.5942 100.87H86.9565V105.507H91.5942V100.87Z" fill="white"/>
<path d="M96.2319 100.87H91.5942V105.507H96.2319V100.87Z" fill="white"/>
<path d="M100.87 100.87H96.2319V105.507H100.87V100.87Z" fill="white"/>
<path d="M105.507 100.87H100.87V105.507H105.507V100.87Z" fill="white"/>
<path d="M110.145 100.87H105.507V105.507H110.145V100.87Z" fill="white"/>
<path d="M119.42 100.87H114.783V105.507H119.42V100.87Z" fill="white"/>
<path d="M128.696 100.87H124.058V105.507H128.696V100.87Z" fill="white"/>
<path d="M142.609 100.87H137.971V105.507H142.609V100.87Z" fill="white"/>
<path d="M151.884 100.87H147.246V105.507H151.884V100.87Z" fill="white"/>
<path d="M156.522 100.87H151.884V105.507H156.522V100.87Z" fill="white"/>
<path d="M8.11595 105.507H3.47827V110.145H8.11595V105.507Z" fill="white"/>
<path d="M12.7536 105.507H8.11597V110.145H12.7536V105.507Z" fill="white"/>
<path d="M26.6667 105.507H22.0291V110.145H26.6667V105.507Z" fill="white"/>
<path d="M31.3044 105.507H26.6667V110.145H31.3044V105.507Z" fill="white"/>
<path d="M35.9421 105.507H31.3044V110.145H35.9421V105.507Z" fill="white"/>
<path d="M45.2175 105.507H40.5798V110.145H45.2175V105.507Z" fill="white"/>
<path d="M49.855 105.507H45.2173V110.145H49.855V105.507Z" fill="white"/>
<path d="M63.7681 105.507H59.1304V110.145H63.7681V105.507Z" fill="white"/>
<path d="M100.87 105.507H96.2319V110.145H100.87V105.507Z" fill="white"/>
<path d="M105.507 105.507H100.87V110.145H105.507V105.507Z" fill="white"/>
<path d="M133.333 105.507H128.696V110.145H133.333V105.507Z" fill="white"/>
<path d="M137.971 105.507H133.333V110.145H137.971V105.507Z" fill="white"/>
<path d="M142.609 105.507H137.971V110.145H142.609V105.507Z" fill="white"/>
<path d="M147.246 105.507H142.609V110.145H147.246V105.507Z" fill="white"/>
<path d="M156.522 105.507H151.884V110.145H156.522V105.507Z" fill="white"/>
<path d="M12.7536 110.145H8.11597V114.783H12.7536V110.145Z" fill="white"/>
<path d="M17.3913 110.145H12.7537V114.783H17.3913V110.145Z" fill="white"/>
<path d="M31.3044 110.145H26.6667V114.783H31.3044V110.145Z" fill="white"/>
<path d="M40.5798 110.145H35.9421V114.783H40.5798V110.145Z" fill="white"/>
<path d="M54.4927 110.145H49.855V114.783H54.4927V110.145Z" fill="white"/>
<path d="M63.7681 110.145H59.1304V114.783H63.7681V110.145Z" fill="white"/>
<path d="M82.3188 110.145H77.6812V114.783H82.3188V110.145Z" fill="white"/>
<path d="M86.9565 110.145H82.3188V114.783H86.9565V110.145Z" fill="white"/>
<path d="M105.507 110.145H100.87V114.783H105.507V110.145Z" fill="white"/>
<path d="M110.145 110.145H105.507V114.783H110.145V110.145Z" fill="white"/>
<path d="M128.696 110.145H124.058V114.783H128.696V110.145Z" fill="white"/>
<path d="M137.971 110.145H133.333V114.783H137.971V110.145Z" fill="white"/>
<path d="M142.609 110.145H137.971V114.783H142.609V110.145Z" fill="white"/>
<path d="M8.11595 114.783H3.47827V119.42H8.11595V114.783Z" fill="white"/>
<path d="M22.029 114.783H17.3914V119.42H22.029V114.783Z" fill="white"/>
<path d="M26.6667 114.783H22.0291V119.42H26.6667V114.783Z" fill="white"/>
<path d="M35.9421 114.783H31.3044V119.42H35.9421V114.783Z" fill="white"/>
<path d="M40.5798 114.783H35.9421V119.42H40.5798V114.783Z" fill="white"/>
<path d="M45.2175 114.783H40.5798V119.42H45.2175V114.783Z" fill="white"/>
<path d="M73.0434 114.783H68.4058V119.42H73.0434V114.783Z" fill="white"/>
<path d="M77.6811 114.783H73.0435V119.42H77.6811V114.783Z" fill="white"/>
<path d="M82.3188 114.783H77.6812V119.42H82.3188V114.783Z" fill="white"/>
<path d="M86.9565 114.783H82.3188V119.42H86.9565V114.783Z" fill="white"/>
<path d="M91.5942 114.783H86.9565V119.42H91.5942V114.783Z" fill="white"/>
<path d="M96.2319 114.783H91.5942V119.42H96.2319V114.783Z" fill="white"/>
<path d="M100.87 114.783H96.2319V119.42H100.87V114.783Z" fill="white"/>
<path d="M105.507 114.783H100.87V119.42H105.507V114.783Z" fill="white"/>
<path d="M119.42 114.783H114.783V119.42H119.42V114.783Z" fill="white"/>
<path d="M124.058 114.783H119.42V119.42H124.058V114.783Z" fill="white"/>
<path d="M128.696 114.783H124.058V119.42H128.696V114.783Z" fill="white"/>
<path d="M133.333 114.783H128.696V119.42H133.333V114.783Z" fill="white"/>
<path d="M137.971 114.783H133.333V119.42H137.971V114.783Z" fill="white"/>
<path d="M156.522 114.783H151.884V119.42H156.522V114.783Z" fill="white"/>
<path d="M45.2175 119.42H40.5798V124.058H45.2175V119.42Z" fill="white"/>
<path d="M54.4927 119.42H49.855V124.058H54.4927V119.42Z" fill="white"/>
<path d="M73.0434 119.42H68.4058V124.058H73.0434V119.42Z" fill="white"/>
<path d="M77.6811 119.42H73.0435V124.058H77.6811V119.42Z" fill="white"/>
<path d="M86.9565 119.42H82.3188V124.058H86.9565V119.42Z" fill="white"/>
<path d="M96.2319 119.42H91.5942V124.058H96.2319V119.42Z" fill="white"/>
<path d="M100.87 119.42H96.2319V124.058H100.87V119.42Z" fill="white"/>
<path d="M110.145 119.42H105.507V124.058H110.145V119.42Z" fill="white"/>
<path d="M114.783 119.42H110.145V124.058H114.783V119.42Z" fill="white"/>
<path d="M119.42 119.42H114.783V124.058H119.42V119.42Z" fill="white"/>
<path d="M137.971 119.42H133.333V124.058H137.971V119.42Z" fill="white"/>
<path d="M142.609 119.42H137.971V124.058H142.609V119.42Z" fill="white"/>
<path d="M151.884 119.42H147.246V124.058H151.884V119.42Z" fill="white"/>
<path d="M156.522 119.42H151.884V124.058H156.522V119.42Z" fill="white"/>
<path d="M45.2175 124.058H40.5798V128.696H45.2175V124.058Z" fill="white"/>
<path d="M59.1304 124.058H54.4927V128.696H59.1304V124.058Z" fill="white"/>
<path d="M63.7681 124.058H59.1304V128.696H63.7681V124.058Z" fill="white"/>
<path d="M105.507 124.058H100.87V128.696H105.507V124.058Z" fill="white"/>
<path d="M119.42 124.058H114.783V128.696H119.42V124.058Z" fill="white"/>
<path d="M128.696 124.058H124.058V128.696H128.696V124.058Z" fill="white"/>
<path d="M137.971 124.058H133.333V128.696H137.971V124.058Z" fill="white"/>
<path d="M142.609 124.058H137.971V128.696H142.609V124.058Z" fill="white"/>
<path d="M147.246 124.058H142.609V128.696H147.246V124.058Z" fill="white"/>
<path d="M151.884 124.058H147.246V128.696H151.884V124.058Z" fill="white"/>
<path d="M45.2175 128.696H40.5798V133.333H45.2175V128.696Z" fill="white"/>
<path d="M54.4927 128.696H49.855V133.333H54.4927V128.696Z" fill="white"/>
<path d="M63.7681 128.696H59.1304V133.333H63.7681V128.696Z" fill="white"/>
<path d="M77.6811 128.696H73.0435V133.333H77.6811V128.696Z" fill="white"/>
<path d="M82.3188 128.696H77.6812V133.333H82.3188V128.696Z" fill="white"/>
<path d="M96.2319 128.696H91.5942V133.333H96.2319V128.696Z" fill="white"/>
<path d="M100.87 128.696H96.2319V133.333H100.87V128.696Z" fill="white"/>
<path d="M119.42 128.696H114.783V133.333H119.42V128.696Z" fill="white"/>
<path d="M137.971 128.696H133.333V133.333H137.971V128.696Z" fill="white"/>
<path d="M156.522 128.696H151.884V133.333H156.522V128.696Z" fill="white"/>
<path d="M49.855 133.333H45.2173V137.971H49.855V133.333Z" fill="white"/>
<path d="M54.4927 133.333H49.855V137.971H54.4927V133.333Z" fill="white"/>
<path d="M63.7681 133.333H59.1304V137.971H63.7681V133.333Z" fill="white"/>
<path d="M82.3188 133.333H77.6812V137.971H82.3188V133.333Z" fill="white"/>
<path d="M96.2319 133.333H91.5942V137.971H96.2319V133.333Z" fill="white"/>
<path d="M110.145 133.333H105.507V137.971H110.145V133.333Z" fill="white"/>
<path d="M119.42 133.333H114.783V137.971H119.42V133.333Z" fill="white"/>
<path d="M124.058 133.333H119.42V137.971H124.058V133.333Z" fill="white"/>
<path d="M128.696 133.333H124.058V137.971H128.696V133.333Z" fill="white"/>
<path d="M133.333 133.333H128.696V137.971H133.333V133.333Z" fill="white"/>
<path d="M137.971 133.333H133.333V137.971H137.971V133.333Z" fill="white"/>
<path d="M142.609 133.333H137.971V137.971H142.609V133.333Z" fill="white"/>
<path d="M151.884 133.333H147.246V137.971H151.884V133.333Z" fill="white"/>
<path d="M156.522 133.333H151.884V137.971H156.522V133.333Z" fill="white"/>
<path d="M45.2175 137.971H40.5798V142.609H45.2175V137.971Z" fill="white"/>
<path d="M54.4927 137.971H49.855V142.609H54.4927V137.971Z" fill="white"/>
<path d="M68.4058 137.971H63.7681V142.609H68.4058V137.971Z" fill="white"/>
<path d="M73.0434 137.971H68.4058V142.609H73.0434V137.971Z" fill="white"/>
<path d="M77.6811 137.971H73.0435V142.609H77.6811V137.971Z" fill="white"/>
<path d="M91.5942 137.971H86.9565V142.609H91.5942V137.971Z" fill="white"/>
<path d="M96.2319 137.971H91.5942V142.609H96.2319V137.971Z" fill="white"/>
<path d="M100.87 137.971H96.2319V142.609H100.87V137.971Z" fill="white"/>
<path d="M114.783 137.971H110.145V142.609H114.783V137.971Z" fill="white"/>
<path d="M128.696 137.971H124.058V142.609H128.696V137.971Z" fill="white"/>
<path d="M137.971 137.971H133.333V142.609H137.971V137.971Z" fill="white"/>
<path d="M142.609 137.971H137.971V142.609H142.609V137.971Z" fill="white"/>
<path d="M147.246 137.971H142.609V142.609H147.246V137.971Z" fill="white"/>
<path d="M151.884 137.971H147.246V142.609H151.884V137.971Z" fill="white"/>
<path d="M54.4927 142.609H49.855V147.246H54.4927V142.609Z" fill="white"/>
<path d="M59.1304 142.609H54.4927V147.246H59.1304V142.609Z" fill="white"/>
<path d="M68.4058 142.609H63.7681V147.246H68.4058V142.609Z" fill="white"/>
<path d="M77.6811 142.609H73.0435V147.246H77.6811V142.609Z" fill="white"/>
<path d="M82.3188 142.609H77.6812V147.246H82.3188V142.609Z" fill="white"/>
<path d="M110.145 142.609H105.507V147.246H110.145V142.609Z" fill="white"/>
<path d="M119.42 142.609H114.783V147.246H119.42V142.609Z" fill="white"/>
<path d="M137.971 142.609H133.333V147.246H137.971V142.609Z" fill="white"/>
<path d="M156.522 142.609H151.884V147.246H156.522V142.609Z" fill="white"/>
<path d="M45.2175 147.246H40.5798V151.884H45.2175V147.246Z" fill="white"/>
<path d="M49.855 147.246H45.2173V151.884H49.855V147.246Z" fill="white"/>
<path d="M59.1304 147.246H54.4927V151.884H59.1304V147.246Z" fill="white"/>
<path d="M68.4058 147.246H63.7681V151.884H68.4058V147.246Z" fill="white"/>
<path d="M73.0434 147.246H68.4058V151.884H73.0434V147.246Z" fill="white"/>
<path d="M82.3188 147.246H77.6812V151.884H82.3188V147.246Z" fill="white"/>
<path d="M86.9565 147.246H82.3188V151.884H86.9565V147.246Z" fill="white"/>
<path d="M91.5942 147.246H86.9565V151.884H91.5942V147.246Z" fill="white"/>
<path d="M105.507 147.246H100.87V151.884H105.507V147.246Z" fill="white"/>
<path d="M114.783 147.246H110.145V151.884H114.783V147.246Z" fill="white"/>
<path d="M119.42 147.246H114.783V151.884H119.42V147.246Z" fill="white"/>
<path d="M124.058 147.246H119.42V151.884H124.058V147.246Z" fill="white"/>
<path d="M142.609 147.246H137.971V151.884H142.609V147.246Z" fill="white"/>
<path d="M49.855 151.884H45.2173V156.522H49.855V151.884Z" fill="white"/>
<path d="M54.4927 151.884H49.855V156.522H54.4927V151.884Z" fill="white"/>
<path d="M59.1304 151.884H54.4927V156.522H59.1304V151.884Z" fill="white"/>
<path d="M73.0434 151.884H68.4058V156.522H73.0434V151.884Z" fill="white"/>
<path d="M77.6811 151.884H73.0435V156.522H77.6811V151.884Z" fill="white"/>
<path d="M82.3188 151.884H77.6812V156.522H82.3188V151.884Z" fill="white"/>
<path d="M91.5942 151.884H86.9565V156.522H91.5942V151.884Z" fill="white"/>
<path d="M100.87 151.884H96.2319V156.522H100.87V151.884Z" fill="white"/>
<path d="M105.507 151.884H100.87V156.522H105.507V151.884Z" fill="white"/>
<path d="M119.42 151.884H114.783V156.522H119.42V151.884Z" fill="white"/>
<path d="M128.696 151.884H124.058V156.522H128.696V151.884Z" fill="white"/>
<path d="M137.971 151.884H133.333V156.522H137.971V151.884Z" fill="white"/>
<path d="M142.609 151.884H137.971V156.522H142.609V151.884Z" fill="white"/>
<path d="M151.884 151.884H147.246V156.522H151.884V151.884Z" fill="white"/>
</mask>
<g mask="url(#mask1_2801_20503)">
<path d="M160 0H0V160H160V0Z" fill="#4B45E6"/>
</g>
<mask id="mask2_2801_20503" style="mask-type:luminance" maskUnits="userSpaceOnUse" x="3" y="3" width="33" height="33">
<path fill-rule="evenodd" clip-rule="evenodd" d="M3.47827 3.47826V35.942H35.942V3.47826H3.47827ZM8.11595 8.11594H31.3044V31.3043H8.11595V8.11594Z" fill="white"/>
</mask>
<g mask="url(#mask2_2801_20503)">
<path d="M35.942 3.47826H3.47827V35.942H35.942V3.47826Z" fill="#4B45E6"/>
</g>
<mask id="mask3_2801_20503" style="mask-type:luminance" maskUnits="userSpaceOnUse" x="12" y="12" width="15" height="15">
<path d="M26.6667 12.7536H12.7537V26.6667H26.6667V12.7536Z" fill="white"/>
</mask>
<g mask="url(#mask3_2801_20503)">
<path d="M26.6667 12.7536H12.7537V26.6667H26.6667V12.7536Z" fill="#4B45E6"/>
</g>
<mask id="mask4_2801_20503" style="mask-type:luminance" maskUnits="userSpaceOnUse" x="124" y="3" width="33" height="33">
<path fill-rule="evenodd" clip-rule="evenodd" d="M156.522 3.47826L124.058 3.47826V35.942H156.522V3.47826ZM151.884 8.11594V31.3043H128.696V8.11594L151.884 8.11594Z" fill="white"/>
</mask>
<g mask="url(#mask4_2801_20503)">
<path d="M156.522 3.47826H124.058V35.942H156.522V3.47826Z" fill="#4B45E6"/>
</g>
<mask id="mask5_2801_20503" style="mask-type:luminance" maskUnits="userSpaceOnUse" x="133" y="12" width="15" height="15">
<path d="M147.246 26.6667V12.7536H133.333V26.6667H147.246Z" fill="white"/>
</mask>
<g mask="url(#mask5_2801_20503)">
<path d="M147.246 12.7536H133.333V26.6667H147.246V12.7536Z" fill="#4B45E6"/>
</g>
<mask id="mask6_2801_20503" style="mask-type:luminance" maskUnits="userSpaceOnUse" x="3" y="124" width="33" height="33">
<path fill-rule="evenodd" clip-rule="evenodd" d="M3.47827 156.522H35.942V124.058H3.47827L3.47827 156.522ZM8.11596 151.884L8.11596 128.696H31.3044V151.884H8.11596Z" fill="white"/>
</mask>
<g mask="url(#mask6_2801_20503)">
<path d="M35.942 124.058H3.47827V156.522H35.942V124.058Z" fill="#4B45E6"/>
</g>
<mask id="mask7_2801_20503" style="mask-type:luminance" maskUnits="userSpaceOnUse" x="12" y="133" width="15" height="15">
<path d="M12.7537 133.333V147.246H26.6667V133.333H12.7537Z" fill="white"/>
</mask>
<g mask="url(#mask7_2801_20503)">
<path d="M26.6667 133.333H12.7537V147.246H26.6667V133.333Z" fill="#4B45E6"/>
</g>
</svg>
